<svg width="20" height="20" viewBox="0 0 20 20" fill="none" xmlns="http://www.w3.org/2000/svg">
<path d="M11.625 0.322271C10.5819 -0.107424 9.41815 -0.107424 8.375 0.322271L1.17875 3.28904C0.831136 3.43219 0.533099 3.67921 0.323019 3.99829C0.112939 4.31738 0.000436767 4.69391 2.61695e-08 5.0794V14.9206C-6.25799e-05 15.3065 0.112207 15.6836 0.322319 16.0032C0.532431 16.3228 0.830741 16.5702 1.17875 16.7135L8.375 19.6777C9.41815 20.1074 10.5819 20.1074 11.625 19.6777L18.8212 16.7135C19.1693 16.5702 19.4676 16.3228 19.6777 16.0032C19.8878 15.6836 20.0001 15.3065 20 14.9206V5.0794C19.9998 4.69369 19.8874 4.31688 19.6773 3.99754C19.4672 3.6782 19.1691 3.43098 18.8212 3.28776L11.625 0.322271ZM8.83937 1.51928C8.83979 1.51928 8.8402 1.5192 8.84058 1.51904C9.58548 1.2124 10.4164 1.21248 11.1612 1.51928L17.4678 4.11678C17.5504 4.15079 17.5504 4.26777 17.4677 4.30173L14.8818 5.36494C14.8574 5.37496 14.8301 5.37496 14.8057 5.36493L7.37584 2.30676C7.29327 2.27277 7.29325 2.15582 7.37582 2.12182L8.83817 1.51952C8.83855 1.51936 8.83896 1.51928 8.83937 1.51928ZM5.46875 2.90638C5.46875 2.90595 5.46918 2.90566 5.46957 2.90583L12.9369 5.98066C13.0194 6.01464 13.0194 6.13153 12.9369 6.16557L10.0381 7.36117C10.0137 7.37123 9.9863 7.37124 9.96189 7.36118L2.53204 4.30053C2.44948 4.26652 2.4495 4.14959 2.53206 4.1156L5.46838 2.90693C5.4686 2.90683 5.46875 2.90662 5.46875 2.90638ZM10.625 8.57135C10.625 8.53083 10.6495 8.49432 10.6869 8.47888L18.6119 5.21479C18.6777 5.18768 18.75 5.23607 18.75 5.30726V14.9193C18.7502 15.0481 18.7129 15.1739 18.643 15.2806C18.573 15.3873 18.4736 15.4699 18.3575 15.5178L11.16 18.482C11.0238 18.5371 10.8854 18.5828 10.7453 18.6186C10.6836 18.6343 10.625 18.5868 10.625 18.5232V8.57135ZM9.375 8.50439V18.5235C9.375 18.5871 9.31654 18.6345 9.25497 18.619C9.11378 18.5833 8.97511 18.5375 8.84 18.482L1.6425 15.5178C1.52664 15.47 1.42734 15.3876 1.35738 15.2811C1.28743 15.1747 1.25003 15.0491 1.25 14.9206V5.30854C1.25 5.23736 1.32227 5.18897 1.38808 5.21608L9.37381 8.50518C9.37438 8.50542 9.375 8.505 9.375 8.50439Z" fill="url(#paint0_linear_1694_8757)"/>
<defs>
<linearGradient id="paint0_linear_1694_8757" x1="1.02041" y1="3.06122" x2="16.3265" y2="19.3878" gradientUnits="userSpaceOnUse">
<stop stop-color="#91AAFF"/>
<stop offset="1" stop-color="#3752D7"/>
</linearGradient>
</defs>
</svg>
