<svg width="9" height="14" viewBox="0 0 9 14" fill="none" xmlns="http://www.w3.org/2000/svg">
<path d="M0.00626498 7.00024C0.00525026 7.17572 0.038884 7.34967 0.105237 7.51212C0.17159 7.67457 0.269356 7.82232 0.392931 7.94691L5.72626 13.2802C5.97734 13.5313 6.31786 13.6724 6.67293 13.6724C7.028 13.6724 7.36853 13.5313 7.6196 13.2802C7.87067 13.0292 8.01172 12.6886 8.01172 12.3336C8.01172 11.9785 7.87067 11.638 7.6196 11.3869L3.2196 7.00024L7.60626 2.61357C7.8247 2.35851 7.93884 2.03041 7.92588 1.69484C7.91292 1.35927 7.77381 1.04095 7.53635 0.803491C7.29889 0.566031 6.98057 0.426923 6.645 0.413961C6.30943 0.401 5.98133 0.515139 5.72626 0.733575L0.392931 6.06691C0.146606 6.31526 0.00773747 6.65045 0.00626498 7.00024Z" fill="#586BCA"/>
</svg>
