<svg width="9" height="14" viewBox="0 0 9 14" fill="none" xmlns="http://www.w3.org/2000/svg">
<path d="M8.74471 7.00024C8.74573 7.17572 8.71209 7.34967 8.64574 7.51212C8.57939 7.67457 8.48162 7.82232 8.35805 7.94691L3.02471 13.2802C2.77364 13.5313 2.43311 13.6724 2.07805 13.6724C1.72298 13.6724 1.38245 13.5313 1.13138 13.2802C0.880308 13.0292 0.739258 12.6886 0.739258 12.3336C0.739258 11.9785 0.880308 11.638 1.13138 11.3869L5.53138 7.00024L1.14471 2.61357C0.926277 2.35851 0.812135 2.03041 0.825097 1.69484C0.838058 1.35927 0.977169 1.04095 1.21463 0.803491C1.45209 0.566031 1.77041 0.426923 2.10597 0.413961C2.44154 0.401 2.76964 0.515139 3.02471 0.733575L8.35805 6.06691C8.60437 6.31526 8.74324 6.65045 8.74471 7.00024Z" fill="#586BCA"/>
</svg>
