<svg width="24" height="24" viewBox="0 0 24 24" fill="none" xmlns="http://www.w3.org/2000/svg">
<path d="M5.15345 9.14249C5.08176 8.1389 5.04592 7.6371 5.34253 7.31855C5.63913 7 6.14221 7 7.14837 7H16.8525C17.8586 7 18.3617 7 18.6583 7.31855C18.9549 7.6371 18.9191 8.1389 18.8474 9.14249L18.4279 15.0153C18.2755 17.1485 18.1993 18.2151 17.7284 19.02C17.3328 19.6961 16.7474 20.2412 16.0448 20.5876C15.2084 21 14.1391 21 12.0004 21C9.86173 21 8.79239 21 7.95603 20.5876C7.25342 20.2412 6.66799 19.6961 6.2724 19.02C5.80149 18.2151 5.7253 17.1485 5.57293 15.0152L5.15345 9.14249Z" stroke="#94A3B8" stroke-width="1.5"/>
<path d="M4 7H20" stroke="#94A3B8" stroke-width="1.5" stroke-linecap="round" stroke-linejoin="round"/>
<path d="M8 5L8.1094 4.8359C8.6658 4.0013 9.60249 3.5 10.6056 3.5H13.3944C14.3975 3.5 15.3342 4.0013 15.8906 4.8359L16 5" stroke="#94A3B8" stroke-width="1.5" stroke-linecap="round" stroke-linejoin="round"/>
<path d="M9.5 11V17" stroke="#94A3B8" stroke-width="1.5" stroke-linecap="round" stroke-linejoin="round"/>
<path d="M14.5 11V17" stroke="#94A3B8" stroke-width="1.5" stroke-linecap="round" stroke-linejoin="round"/>
</svg>
