<svg width="140" height="89" viewBox="0 0 140 89" fill="none" xmlns="http://www.w3.org/2000/svg">
<path d="M0.000708487 67.173C-0.0115879 66.6321 0.136419 66.0998 0.425835 65.6441C0.71525 65.1883 1.13294 64.8297 1.6256 64.6141C2.11825 64.3985 2.66352 64.3357 3.19178 64.4337C3.72005 64.5316 4.20736 64.7859 4.59149 65.164C4.97563 65.5422 5.23918 66.0271 5.34848 66.5568C5.45779 67.0865 5.40789 67.637 5.20517 68.138C5.00246 68.639 4.65611 69.0678 4.21034 69.3697C3.76457 69.6715 3.23961 69.8327 2.70246 69.8327C2.35058 69.8409 2.00063 69.7782 1.67316 69.6482C1.3457 69.5182 1.04733 69.3236 0.795616 69.0758C0.543899 68.828 0.343908 68.532 0.207397 68.2053C0.0708874 67.8785 0.000614216 67.5275 0.000708487 67.173ZM0.184799 88.2934V71.1953H5.25031V88.2934H0.184799Z" fill="#0F172A"/>
<path d="M28.9147 66.6455H22.5899L14.3926 76.4484V66.6455H9.11133V88.2925H14.3926V78.922L23.02 88.2917H29.3447L19.4612 77.3489L28.9147 66.6455Z" fill="#0F172A"/>
<path d="M39.0736 70.8242C33.5781 70.8242 29.5869 74.5661 29.5869 79.7297C29.5869 84.8933 33.5479 88.6678 39.0435 88.6678C44.57 88.6678 48.5619 84.8682 48.5619 79.7008C48.5611 74.5638 44.5669 70.8242 39.0736 70.8242ZM39.0736 84.2748C36.525 84.2748 34.6834 82.451 34.6834 79.6666C34.7223 78.8051 35.0114 77.9741 35.5147 77.2765C36.0179 76.5788 36.7134 76.0452 37.5148 75.7417C38.3162 75.4382 39.1884 75.3782 40.0234 75.5691C40.8583 75.76 41.6193 76.1934 42.2121 76.8156C42.8049 77.4378 43.2035 78.2215 43.3584 79.0697C43.5134 79.9178 43.4179 80.7931 43.0838 81.5871C42.7497 82.3811 42.1917 83.059 41.4789 83.5367C40.7661 84.0144 39.9298 84.271 39.0736 84.2748Z" fill="#0F172A"/>
<path d="M59.0598 70.8242C53.9935 70.8242 50.4316 74.3806 50.4316 79.9159V88.2962H55.4979V79.1772C55.4979 76.8276 56.9714 75.1884 59.0598 75.1884C61.2085 75.1884 62.6518 76.8276 62.6518 79.1772V88.2962H67.7173V79.9136C67.7165 74.3783 64.1555 70.8242 59.0598 70.8242Z" fill="#0F172A"/>
<path d="M94.844 70.8237C93.7537 70.7895 92.6692 70.9963 91.6667 71.4296C90.6642 71.8628 89.7681 72.512 89.0414 73.3314C88.3167 72.5094 87.4209 71.8586 86.418 71.4251C85.415 70.9917 84.3295 70.7863 83.2387 70.8237C78.3573 70.8237 74.9185 74.5032 74.9185 80.008V88.2949H80.0156V79.1759C80.0156 76.8262 81.3661 75.1871 83.2387 75.1871C85.1732 75.1871 86.4935 76.8262 86.4935 79.1759V88.2949H91.5907V79.1759C91.5907 76.8262 92.9412 75.1871 94.8455 75.1871C96.7189 75.1871 98.0701 76.8262 98.0701 79.1759V88.2949H103.166V80.0057C103.164 74.5009 99.7262 70.8237 94.844 70.8237Z" fill="#0F172A"/>
<path d="M114.52 70.8242C108.993 70.8242 105.032 74.5972 105.032 79.8847C105.032 85.1122 108.87 88.6686 113.844 88.6686C114.854 88.6973 115.858 88.5141 116.793 88.1308C117.728 87.7475 118.574 87.1724 119.277 86.442L119.369 88.297H124.006V80.0679C124.007 74.5949 120.043 70.8242 114.52 70.8242ZM114.52 84.3074C113.347 84.2741 112.234 83.7825 111.415 82.9367C110.596 82.091 110.136 80.9574 110.132 79.776C110.128 78.5945 110.581 77.458 111.394 76.6069C112.208 75.7557 113.318 75.2568 114.49 75.2158C117.068 75.2158 118.88 77.0396 118.88 79.792C118.918 80.3844 118.833 80.9784 118.629 81.5355C118.426 82.0925 118.108 82.6003 117.697 83.0258C117.286 83.4513 116.79 83.785 116.243 84.0054C115.696 84.2258 115.109 84.3279 114.52 84.3052V84.3074Z" fill="#0F172A"/>
<path d="M131.894 65.4717H126.828V88.2935H131.894V65.4717Z" fill="#0F172A"/>
<path d="M140 65.4717H134.935V88.2935H140V65.4717Z" fill="#0F172A"/>
<path d="M87.8298 5.56866C97.5417 3.68866 98.8592 7.03612 98.8592 7.03612C98.8592 7.03612 99.621 7.90154 98.7831 12.2467C98.5344 12.5326 95.2142 27.4932 95.2142 27.4932C95.2142 27.4932 92.9322 36.4654 89.7273 37.1861C89.7273 37.1861 86.2217 38.796 79.382 35.961L84.1964 35.7848L87.0349 34.7848L88.9754 33.7711L89.7092 32.4884L91.2365 30.6208L93.7449 28.4476L93.289 26.3876L93.6879 23.8662L93.566 23.0121L93.4283 20.8384L96.0985 18.5647L96.2569 15.7207L97.3588 13.5689L96.8408 10.3412L95.6282 8.74435L95.6879 7.68752L93.4151 7.44437C92.3513 7.27852 91.2771 7.1889 90.2007 7.17619" fill="#94A3B8"/>
<path d="M61.9511 38.4339C61.9511 38.4339 66.7441 42.1665 64.7881 45.5729C64.8372 45.5738 63.5043 46.8953 63.5043 46.8953L61.261 46.5182L59.976 43.0437L57.7675 38.6729L61.5618 38.4255" fill="#94A3B8"/>
<path d="M65.6996 32.7776L57.4677 12.672L73.4896 11.1362C76.7403 10.8292 79.7521 10.5489 81.638 10.383C83.3766 10.2288 83.6033 10.2177 83.7014 10.2194C86.9855 9.94411 89.1711 10.4854 90.2068 11.8144C90.4519 12.1215 90.6284 12.4782 90.7243 12.86C90.8202 13.2419 90.8332 13.64 90.7624 14.0273L90.1126 18.559C89.4753 23.0173 89.2662 24.6209 89.2075 25.1448L89.1936 25.3815C89.152 25.9917 89.0497 26.596 88.8882 27.1855C88.5704 28.4365 87.8918 29.5646 86.9379 30.4278C85.984 31.291 84.7975 31.8506 83.5278 32.0361L65.6996 32.7776ZM59.5423 13.9284L66.6442 31.2889L83.4232 30.5909C84.3957 30.4259 85.2992 29.9793 86.0233 29.3058C86.7474 28.6323 87.2608 27.761 87.5008 26.7983C87.6094 26.4037 87.6859 26.0009 87.7295 25.5938L87.7623 25.1325C87.8157 24.5661 88.1261 22.2866 88.6873 18.3534L89.348 13.7611C89.3787 13.5717 89.3686 13.3777 89.3182 13.1925C89.2678 13.0073 89.1784 12.8352 89.056 12.6878C88.5836 12.1028 87.1997 11.3708 83.7687 11.6716L83.2397 11.7168L83.2331 11.7022C82.8983 11.7296 82.3956 11.7738 81.766 11.8278C79.8823 11.9946 76.8721 12.2718 73.6273 12.582L59.5423 13.9284Z" fill="#0F172A"/>
<path d="M97.4522 6.86991C95.9376 5.06647 93.0818 4.59207 88.9699 5.4528L64.7449 7.45929C61.4742 1.50351 53.7492 -1.11865 43.5958 0.755074C43.552 0.754289 43.5122 0.742932 43.4677 0.742134C43.0868 0.740929 42.7106 0.825562 42.3667 0.989817C42.2682 1.02525 42.1722 1.06718 42.0792 1.11533C41.8098 1.26536 41.5829 1.48209 41.4199 1.74505C41.257 2.008 41.1633 2.30849 41.1479 2.61811C41.1485 2.85804 41.1986 3.09527 41.2951 3.31476C41.3915 3.53424 41.5322 3.73119 41.7082 3.89312C43.3292 4.44133 44.903 5.12182 46.414 5.92779C48.182 7.29291 49.7549 8.89643 51.0886 10.6932L62.6472 35.1469C60.318 36.5099 58.9036 37.3468 58.0448 37.9096C57.3187 37.6137 56.5449 37.4541 55.7619 37.4386C51.8425 37.3683 48.5934 40.8512 48.5195 45.2024C48.4456 49.5536 51.5743 53.1547 55.4938 53.225C57.0066 53.2036 58.4737 52.7021 59.6862 51.7922C60.8987 50.8822 61.7947 49.6101 62.2466 48.1571L78.3136 47.5557C78.4553 51.7041 81.4916 55.0581 85.2737 55.126C89.1924 55.1963 92.44 51.7134 92.5139 47.3606C92.5878 43.0079 89.4605 39.4106 85.5418 39.3403C81.7756 39.2728 78.6399 42.4834 78.3329 46.6002L63.2417 45.3837C63.141 43.7613 62.6775 41.2284 60.9006 39.5372C62.0841 38.8314 63.6136 37.9312 64.8914 37.1845L82.8624 37.5069C85.2675 37.821 87.7039 37.2519 89.7246 35.9038C92.2449 34.1796 93.8941 31.2948 94.6348 27.3309L94.7253 26.8447C95.1345 24.9763 96.9278 17.5668 98.0871 12.8179C98.3068 12.1913 99.2841 9.04828 97.4522 6.86991ZM85.4919 42.2394C87.8228 42.2812 89.6795 44.558 89.6328 47.312C89.586 50.066 87.6523 52.2748 85.3221 52.233C83.0757 52.1927 81.2828 50.069 81.1989 47.4486L86.3947 47.2546L81.2124 46.835C81.4014 44.2378 83.2552 42.1992 85.4919 42.2394ZM55.5385 50.3266C53.2067 50.2848 51.3507 48.0118 51.3975 45.254C51.4444 42.4962 53.3802 40.295 55.7082 40.3368C56.0368 40.3465 56.3627 40.4009 56.6769 40.4985L56.6751 40.6011L57.5189 40.8745C58.267 41.3586 58.8758 42.0319 59.2845 42.8269C59.6932 43.6219 59.8873 44.5109 59.8476 45.4048C59.8023 48.1641 57.8702 50.3684 55.54 50.3266L55.5385 50.3266ZM47.4336 3.09857C54.1875 2.40756 58.9615 3.98305 61.4189 7.73315L52.9937 8.43217C51.409 6.39034 49.5354 4.59333 47.4328 3.09856L47.4336 3.09857ZM95.3677 11.8658L95.3087 12.0509C95.3087 12.0509 94.4163 15.7097 93.5328 19.3733C92.5127 23.6096 91.9294 25.6899 91.8064 26.7992C90.1567 35.6198 83.9573 34.7702 83.2583 34.6391L65.4326 34.2996L54.5195 11.2144L89.2992 8.33356L89.4793 8.30716C93.4619 7.45551 94.8041 8.21046 95.2503 8.73509C95.9866 9.60301 95.5692 11.3338 95.3654 11.8658L95.3677 11.8658Z" fill="#0F172A"/>
<path d="M83.7059 10.9403C83.7221 10.9247 82.957 10.9876 81.702 11.0979L84.8281 18.7439L89.4026 18.4466C89.7457 16.0075 90.0636 13.8559 90.0636 13.8559C90.0636 13.8559 90.8669 10.3221 83.7059 10.9403Z" fill="#88B92D"/>
<path d="M84.8294 18.7458L81.7036 11.1008C79.8175 11.2673 76.8077 11.5479 73.559 11.8546L76.5928 19.2746L84.8294 18.7458Z" fill="#3FACDE"/>
<path d="M87.4914 25.2743L88.4744 25.1926C88.5403 24.5099 88.9933 21.2913 89.3962 18.4516L84.8198 18.7489L87.4914 25.2743Z" fill="#FB923C"/>
<path d="M79.3181 25.954L87.4907 25.2714L84.8231 18.7471L76.5867 19.2774L79.3181 25.954Z" fill="#005DAA"/>
<path d="M68.6012 19.8043L71.3921 26.6288L79.3214 25.9653L76.5899 19.2885L68.6012 19.8043Z" fill="#3FACDE"/>
<path d="M76.5967 19.2813L73.5622 11.859C70.916 12.1082 68.1247 12.373 65.669 12.6082L68.6078 19.7971L76.5967 19.2813Z" fill="#A2DAE2"/>
<path d="M71.3907 26.6283L73.4761 31.7297L81.539 31.396L79.3188 25.9641L71.3907 26.6283Z" fill="#5F2C7F"/>
<path d="M88.4734 25.1972L87.4908 25.2789L79.3188 25.9616L81.5391 31.3942L83.4517 31.3148C84.5753 31.14 85.6231 30.6377 86.4657 29.8701C87.3082 29.1024 87.9085 28.1029 88.1925 26.9952C88.3409 26.4528 88.4353 25.8968 88.4741 25.3354C88.465 25.3383 88.4673 25.2874 88.4734 25.1972Z" fill="#B2241C"/>
<path d="M64.203 27.2306L66.1697 32.0352L73.4774 31.732L71.392 26.6305L64.203 27.2306Z" fill="#0F172A"/>
<path d="M68.6052 19.8045L61.3561 20.2699L64.2059 27.2294L71.3961 26.6292L68.6052 19.8045Z" fill="#66B3CD"/>
<path d="M65.669 12.6163C61.6279 12.9991 58.5067 13.3036 58.5067 13.3036L61.3595 20.267L68.6086 19.8016L65.669 12.6163Z" fill="#EDFCFF"/>
<path d="M86.5153 37.6438C86.5153 37.6438 93.7408 40.8644 92.7576 47.4096C92.7576 47.4096 95.2363 40.8252 88.3727 37.3701L86.5153 37.6438Z" fill="#94A3B8"/>
</svg>
