<svg width="42" height="40" viewBox="0 0 42 40" fill="none" xmlns="http://www.w3.org/2000/svg">
<g clip-path="url(#clip0_760_2272)">
<path d="M12.625 38.4563C14.2888 27.7961 15.4374 17.0693 17.0658 6.40501C17.2094 5.44999 15.3583 6.34895 15.2573 7.01765C13.6271 17.677 12.4803 28.4087 10.8147 39.064C10.6644 40.0158 12.5173 39.1219 12.6232 38.4513L12.625 38.4563Z" fill="#7762F6"/>
<path d="M14.5039 7.00928C22.2133 12.5055 29.7786 18.1952 37.1899 24.082C37.7145 24.5006 39.3653 23.2061 38.7052 22.6788C31.2939 16.7921 23.7268 11.0974 16.0192 5.6061C15.4633 5.21018 13.8266 6.52774 14.5039 7.00928Z" fill="#7762F6"/>
<path d="M10.9461 38.7116C19.8807 33.3967 28.9031 28.2305 38.0117 23.2079C38.3274 23.0366 38.968 22.5949 38.8706 22.1563C38.7731 21.7178 38.1525 21.9041 37.8879 22.0454C28.7825 27.0612 19.7619 32.2324 10.8223 37.5491C10.512 37.7353 9.86736 38.1503 9.96343 38.6006C10.0595 39.0509 10.6852 38.8629 10.9461 38.7116Z" fill="#7762F6"/>
</g>
<defs>
<clipPath id="clip0_760_2272">
<rect width="32.7868" height="30.4377" fill="white" transform="translate(0 11.207) rotate(-19.987)"/>
</clipPath>
</defs>
</svg>
