<svg width="127" height="87" viewBox="0 0 127 87" fill="none" xmlns="http://www.w3.org/2000/svg">
<path d="M67.8639 47.6443L67.7939 47.573C67.7805 47.586 67.7673 47.5991 67.7541 47.612C67.3195 48.0393 66.9632 48.3895 66.3832 48.3057L66.3825 48.3056C65.6521 48.2051 65.0727 47.6172 64.6825 46.9889C63.8928 45.7054 63.9872 44.1738 64.424 42.6341C64.7515 41.4794 65.2663 40.3362 65.7308 39.3048C65.8863 38.9595 66.0361 38.6267 66.1714 38.3103C67.4602 35.3002 68.945 32.3719 70.667 29.585C70.9348 29.1518 71.2095 28.7214 71.4913 28.2943C72.5476 30.4704 73.012 33.0309 72.9255 35.4899C72.8131 38.6881 71.8319 41.7096 70.2376 44.3833C69.5542 45.5294 68.7427 46.6333 67.7935 47.5733L67.8639 47.6443ZM67.8639 47.6443C67.847 47.661 67.8301 47.6776 67.8132 47.6942C67.3896 48.1112 66.9989 48.4957 66.3689 48.4047L71.5553 28.1975C72.6383 30.4022 73.1131 33.0014 73.0255 35.4934C72.9124 38.7101 71.9256 41.7478 70.3235 44.4345C69.6369 45.586 68.8204 46.697 67.8639 47.6443ZM122.411 25.2193C122.623 24.8565 122.696 24.4657 122.471 24.149L122.467 24.1358L122.435 24.0411L122.399 24.0533C117.808 18.4291 112.845 12.8261 105.567 10.7723L105.567 10.7722C99.0378 8.93534 92.0274 10.0112 85.8943 12.6517L85.8943 12.6517C80.8399 14.8302 76.4096 18.2697 72.7226 22.3502C67.3022 17.3005 58.9174 18.1415 52.5578 20.9669C46.119 23.8275 39.6712 28.8596 34.4593 33.9982C24.5615 43.7504 17.1807 56.0641 13.5894 69.5153C13.1387 71.1806 12.7673 72.861 12.4531 74.5533C12.4049 74.8085 12.4224 75.0181 12.5061 75.1797C12.5912 75.344 12.737 75.4439 12.9131 75.4927C13.256 75.5879 13.7328 75.4965 14.2085 75.3113C14.6892 75.124 15.1897 74.8327 15.5886 74.5019C15.9836 74.1743 16.296 73.7942 16.3717 73.4248L16.3717 73.4246C18.7834 61.5338 23.9085 50.3689 31.5842 40.944C35.3753 36.2945 39.7241 32.0786 44.5683 28.549L44.5684 28.5489C49.7995 24.7262 55.9503 20.9668 62.6561 22.0286C65.4082 22.4646 68.0339 23.7277 69.8711 25.8236C69.7114 26.0377 69.5535 26.2528 69.3975 26.469C67.2239 29.4803 65.3622 32.6922 63.7581 36.0382L63.7579 36.0386C62.9686 37.7017 62.2333 39.3994 61.5551 41.1093L61.5448 41.1354C60.8719 42.832 60.181 44.5737 60.1334 46.4383L60.1334 46.4388C60.0999 48.0483 60.7344 49.7071 62.0443 50.7008C63.4371 51.7618 65.2593 51.6118 66.7743 50.9807L66.7744 50.9806C70.1934 49.5548 72.792 46.0652 74.4297 42.8753C76.0225 39.7847 76.9961 36.0157 76.897 32.3627C76.8187 29.4781 76.0714 26.6618 74.428 24.3104C76.9129 21.3043 79.8183 18.6465 83.1863 16.693L83.1361 16.6065L83.1863 16.693C88.6814 13.504 95.3883 12.2197 101.611 13.5794L101.611 13.5795C109.05 15.196 114.114 20.9407 118.765 26.5897L118.765 26.5899C119.041 26.9233 119.483 26.9884 119.943 26.9058C120.406 26.8229 120.913 26.5879 121.356 26.2837C121.799 25.9797 122.188 25.5999 122.411 25.2193Z" fill="#0A211D" stroke="#0A211D" stroke-width="0.2"/>
<path d="M26.3723 62.9088C25.2794 63.0061 24.3344 63.8154 23.7422 64.6538L23.7403 64.6527L16.7303 74.6217L16.7302 74.6217L13.3524 79.4203C13.1457 79.7129 12.9415 80.0249 12.7347 80.3408C12.7047 80.3867 12.6746 80.4326 12.6445 80.4786C12.4062 80.8422 12.1629 81.2088 11.9044 81.56C11.8081 81.6908 11.7098 81.8193 11.6091 81.9444C11.3488 81.562 11.1407 81.1328 10.9659 80.6813C10.707 80.0126 10.5241 79.3036 10.3511 78.6333C10.3058 78.4578 10.2612 78.2849 10.2161 78.1161C9.78659 76.4899 9.41685 74.8433 9.04662 73.1946C9.00036 72.9886 8.95409 72.7826 8.9077 72.5766C8.85484 72.3421 8.80207 72.1066 8.74913 71.8704C7.96361 68.3652 7.1389 64.6851 5.38757 61.5128L5.38746 61.5126C5.1827 61.1437 4.78807 61.044 4.3618 61.1004C3.93551 61.1568 3.45136 61.37 3.01319 61.663C2.5744 61.9565 2.17244 62.3361 1.91428 62.7347C1.65778 63.1307 1.53157 63.5652 1.68701 63.9534L1.68706 63.9535C3.23771 67.8119 4.25577 71.7155 5.16484 75.7662L5.16491 75.7665C5.1913 75.8825 5.21766 75.9984 5.24403 76.1144C5.66998 77.9881 6.09711 79.867 6.66473 81.7174C7.1548 83.3188 7.72904 84.7362 9.10407 85.8087L9.10458 85.8091C9.2711 85.9372 9.47493 85.9811 9.68513 85.976C9.89484 85.9709 10.1177 85.9172 10.3319 85.8425C10.7601 85.6933 11.1737 85.4531 11.4112 85.3147L11.4114 85.3146C13.2194 84.253 14.4613 82.6366 15.6357 80.9603C16.9322 79.1163 18.2287 77.2724 19.5346 75.4254L19.5348 75.4251L27.3203 64.3485L27.3204 64.3484C27.6059 63.9408 27.6007 63.554 27.3852 63.2774C27.1765 63.0095 26.7912 62.8731 26.3727 62.9087L26.3723 62.9088Z" fill="#0A211D" stroke="#0A211D" stroke-width="0.2"/>
</svg>
