<svg width="24" height="24" viewBox="0 0 24 24" fill="none" xmlns="http://www.w3.org/2000/svg">
<path d="M3 12L2.31064 11.7046C2.22979 11.8932 2.22979 12.1068 2.31064 12.2954L3 12ZM21 12L21.6894 12.2954C21.7702 12.1068 21.7702 11.8932 21.6894 11.7046L21 12ZM3 12C3.68936 12.2954 3.68927 12.2957 3.68918 12.2958C3.68917 12.2959 3.6891 12.296 3.68908 12.2961C3.68903 12.2962 3.68902 12.2962 3.68906 12.2961C3.68915 12.2959 3.68941 12.2953 3.68985 12.2943C3.69074 12.2923 3.69234 12.2886 3.69467 12.2833C3.69932 12.2728 3.70685 12.256 3.71726 12.2332C3.73809 12.1877 3.77039 12.1185 3.81417 12.0291C3.90179 11.8502 4.03501 11.591 4.21368 11.2784C4.57198 10.6513 5.1081 9.81799 5.81944 8.98809C7.25364 7.31486 9.31429 5.75 12 5.75V4.25C8.68571 4.25 6.24636 6.18514 4.68056 8.01191C3.8919 8.93201 3.30302 9.84866 2.91132 10.5341C2.71499 10.8777 2.56696 11.1654 2.46708 11.3693C2.41711 11.4713 2.3791 11.5526 2.35305 11.6096C2.34002 11.6381 2.32998 11.6605 2.32291 11.6765C2.31938 11.6845 2.31659 11.6908 2.31454 11.6955C2.31352 11.6979 2.31268 11.6998 2.31203 11.7013C2.31171 11.7021 2.31143 11.7027 2.3112 11.7033C2.31108 11.7035 2.31094 11.7039 2.31089 11.704C2.31076 11.7043 2.31064 11.7046 3 12ZM12 5.75C14.6857 5.75 16.7464 7.31486 18.1806 8.98809C18.8919 9.81799 19.428 10.6513 19.7863 11.2784C19.965 11.591 20.0982 11.8502 20.1858 12.0291C20.2296 12.1185 20.2619 12.1877 20.2827 12.2332C20.2931 12.256 20.3007 12.2728 20.3053 12.2833C20.3077 12.2886 20.3093 12.2923 20.3101 12.2943C20.3106 12.2953 20.3109 12.2959 20.3109 12.2961C20.311 12.2962 20.311 12.2962 20.3109 12.2961C20.3109 12.296 20.3108 12.2959 20.3108 12.2958C20.3107 12.2957 20.3106 12.2954 21 12C21.6894 11.7046 21.6892 11.7043 21.6891 11.704C21.6891 11.7039 21.6889 11.7035 21.6888 11.7033C21.6886 11.7027 21.6883 11.7021 21.688 11.7013C21.6873 11.6998 21.6865 11.6979 21.6855 11.6955C21.6834 11.6908 21.6806 11.6845 21.6771 11.6765C21.67 11.6605 21.66 11.6381 21.6469 11.6096C21.6209 11.5526 21.5829 11.4713 21.5329 11.3693C21.433 11.1654 21.285 10.8777 21.0887 10.5341C20.697 9.84866 20.1081 8.93201 19.3194 8.01191C17.7536 6.18514 15.3143 4.25 12 4.25V5.75ZM21 12C20.3106 11.7046 20.3107 11.7043 20.3108 11.7042C20.3108 11.7041 20.3109 11.704 20.3109 11.7039C20.311 11.7038 20.311 11.7038 20.3109 11.7039C20.3109 11.7041 20.3106 11.7047 20.3101 11.7057C20.3093 11.7077 20.3077 11.7114 20.3053 11.7167C20.3007 11.7272 20.2931 11.744 20.2827 11.7668C20.2619 11.8123 20.2296 11.8815 20.1858 11.9709C20.0982 12.1498 19.965 12.409 19.7863 12.7216C19.428 13.3487 18.8919 14.182 18.1806 15.0119C16.7464 16.6851 14.6857 18.25 12 18.25V19.75C15.3143 19.75 17.7536 17.8149 19.3194 15.9881C20.1081 15.068 20.697 14.1513 21.0887 13.4659C21.285 13.1223 21.433 12.8346 21.5329 12.6307C21.5829 12.5287 21.6209 12.4474 21.6469 12.3904C21.66 12.3619 21.67 12.3395 21.6771 12.3235C21.6806 12.3155 21.6834 12.3092 21.6855 12.3045C21.6865 12.3021 21.6873 12.3002 21.688 12.2987C21.6883 12.2979 21.6886 12.2973 21.6888 12.2967C21.6889 12.2965 21.6891 12.2961 21.6891 12.296C21.6892 12.2957 21.6894 12.2954 21 12ZM12 18.25C9.31429 18.25 7.25364 16.6851 5.81944 15.0119C5.1081 14.182 4.57198 13.3487 4.21368 12.7216C4.03501 12.409 3.90179 12.1498 3.81417 11.9709C3.77039 11.8815 3.73809 11.8123 3.71726 11.7668C3.70685 11.744 3.69932 11.7272 3.69467 11.7167C3.69234 11.7114 3.69074 11.7077 3.68985 11.7057C3.68941 11.7047 3.68915 11.7041 3.68906 11.7039C3.68902 11.7038 3.68903 11.7038 3.68908 11.7039C3.6891 11.704 3.68917 11.7041 3.68918 11.7042C3.68927 11.7043 3.68936 11.7046 3 12C2.31064 12.2954 2.31076 12.2957 2.31089 12.296C2.31094 12.2961 2.31108 12.2965 2.3112 12.2967C2.31143 12.2973 2.31171 12.2979 2.31203 12.2987C2.31268 12.3002 2.31352 12.3021 2.31454 12.3045C2.31659 12.3092 2.31938 12.3155 2.32291 12.3235C2.32998 12.3395 2.34002 12.3619 2.35305 12.3904C2.3791 12.4474 2.41711 12.5287 2.46708 12.6307C2.56696 12.8346 2.71499 13.1223 2.91132 13.4659C3.30302 14.1513 3.8919 15.068 4.68056 15.9881C6.24636 17.8149 8.68571 19.75 12 19.75V18.25Z" fill="#8A91A2"/>
<circle cx="12" cy="12" r="3" stroke="#8A91A2" stroke-width="1.5"/>
</svg>
