<svg width="98" height="90" viewBox="0 0 98 90" fill="none" xmlns="http://www.w3.org/2000/svg">
<path d="M19.562 9.04997C18.9417 9.38282 18.3449 9.88697 17.8795 10.4787C17.4175 11.0661 17.0373 11.8017 16.9471 12.608C16.6949 14.8273 16.6437 17.1126 16.594 19.3337C16.5729 20.2759 16.552 21.2066 16.5162 22.1158C16.5162 22.1158 16.5162 22.1159 16.5162 22.1159L16.1637 30.9257L16.1637 30.9259L15.4372 49.1383C15.4372 49.1387 15.4372 49.1391 15.4372 49.1395C15.4177 49.6087 15.5257 50.0963 15.8679 50.4828C16.2053 50.8638 16.6461 51.0054 17.0062 51.0447C17.6819 51.1184 18.3849 50.8754 18.8368 50.6339L18.8369 50.6338C19.4391 50.3118 20.0683 49.7937 20.5607 49.1845C20.5921 49.1456 20.6234 49.1058 20.6544 49.0652L21.3897 50.3061L21.5228 46.9221L22.2392 28.7143L22.2392 28.7137L22.5916 19.9042C22.5916 19.9041 22.5916 19.904 22.5916 19.9039C22.6275 19.016 22.6813 18.1054 22.7358 17.1819C22.8666 14.9682 23.0017 12.6805 22.9043 10.4553C22.8872 10.0194 22.7642 9.57922 22.4587 9.22455C22.1477 8.86366 21.743 8.70176 21.3766 8.6502C20.7043 8.55557 20.0211 8.80323 19.562 9.04997ZM19.562 9.04997C19.5622 9.0499 19.5623 9.04983 19.5624 9.04976L20.0352 9.93096L19.5616 9.05018C19.5618 9.05011 19.5619 9.05004 19.562 9.04997Z" fill="#FFBD59" stroke="#FFBD59" stroke-width="2"/>
<path d="M46.1514 52.2549L47.0614 51.1935C50.9261 46.7843 54.8038 42.3821 58.6828 37.9786C68.0589 27.3345 77.4423 16.6821 86.6655 5.90174C86.8986 5.63281 87.3718 5.0786 87.6787 4.45897C87.9523 3.90644 88.3275 2.7917 87.4558 1.92483L87.4558 1.92478L87.4472 1.91646C87.0274 1.5088 86.5108 1.38811 86.0546 1.41187C85.6248 1.43424 85.2264 1.5821 84.91 1.73911C84.2802 2.05162 83.7123 2.53335 83.4139 2.86621L83.4138 2.86627C73.5877 13.8283 63.9148 24.9355 54.2474 36.0367C50.4354 40.4139 46.6243 44.7902 42.8049 49.1562L42.8019 49.1597C42.558 49.4411 42.0635 50.0189 41.7456 50.6628C41.4606 51.2399 41.0867 52.3792 41.985 53.2575C42.4107 53.6768 42.9385 53.8001 43.4029 53.7774C43.8429 53.7559 44.2539 53.606 44.5834 53.4443C45.2367 53.1235 45.837 52.6215 46.1514 52.2549Z" fill="#FFBD59" stroke="#FFBD59" stroke-width="2"/>
<path d="M92.026 68.9827C89.7572 68.7318 87.4343 68.6882 85.1778 68.6459C84.3512 68.6304 83.5334 68.6151 82.7305 68.5898C82.7301 68.5898 82.7296 68.5898 82.7292 68.5897L73.8715 68.2942L73.8714 68.2942L55.5584 67.6813L55.5579 67.6813C54.7773 67.6556 54.0441 68.0968 53.5254 68.5143C52.9643 68.9659 52.4412 69.5621 52.0609 70.1685C51.7073 70.7322 51.3623 71.4859 51.4242 72.2167C51.4589 72.6264 51.6277 73.064 52.0193 73.3885C52.3913 73.6966 52.8496 73.8069 53.2837 73.8222L53.5766 73.8326L53.5878 73.8259L71.3091 74.4132L71.3093 74.4132L80.1685 74.7088C81.0175 74.7373 81.8832 74.7786 82.7584 74.8204C84.9571 74.9252 87.2167 75.0331 89.4267 74.9489L89.4267 74.9489L89.4342 74.9486C90.2565 74.911 90.9756 74.4946 91.5055 74.0625C92.0484 73.6199 92.5022 73.0724 92.806 72.5835C92.9831 72.3009 93.2852 71.6909 93.3966 71.078C93.4504 70.7814 93.4896 70.3304 93.3029 69.8948C93.074 69.3603 92.5947 69.0451 92.026 68.9827ZM92.026 68.9827L91.9161 69.9766L92.0244 68.9825C92.0249 68.9826 92.0255 68.9826 92.026 68.9827Z" fill="#FFBD59" stroke="#FFBD59" stroke-width="2"/>
</svg>
