<svg width="19" height="26" viewBox="0 0 19 26" fill="none" xmlns="http://www.w3.org/2000/svg">
<path d="M9.25648 11.746C9.13533 11.7339 8.98995 11.7339 8.85669 11.746C5.97332 11.6491 3.68359 9.28664 3.68359 6.37905C3.68359 3.41088 6.08236 1 9.06264 1C12.0308 1 14.4417 3.41088 14.4417 6.37905C14.4296 9.28664 12.1398 11.6491 9.25648 11.746Z" stroke="#586BCA" stroke-width="1.5" stroke-linecap="round" stroke-linejoin="round"/>
<path d="M3.19887 16.2165C0.267044 18.1791 0.267044 21.3775 3.19887 23.328C6.53048 25.5571 11.9943 25.5571 15.326 23.328C18.2578 21.3654 18.2578 18.167 15.326 16.2165C12.0065 13.9995 6.5426 13.9995 3.19887 16.2165Z" stroke="#586BCA" stroke-width="1.5" stroke-linecap="round" stroke-linejoin="round"/>
</svg>
