<svg width="121" height="77" viewBox="0 0 121 77" fill="none" xmlns="http://www.w3.org/2000/svg">
<path d="M0.000612334 58.0569C-0.0100153 57.5894 0.117905 57.1293 0.368042 56.7354C0.61818 56.3415 0.979186 56.0316 1.40498 55.8453C1.83077 55.6589 2.30204 55.6046 2.75861 55.6893C3.21518 55.7739 3.63635 55.9937 3.96836 56.3205C4.30036 56.6474 4.52814 57.0664 4.62261 57.5243C4.71708 57.9821 4.67396 58.4579 4.49875 58.8909C4.32355 59.3239 4.0242 59.6945 3.63893 59.9554C3.25366 60.2163 2.79994 60.3556 2.3357 60.3556C2.03157 60.3627 1.72911 60.3085 1.44609 60.1961C1.16306 60.0838 0.905193 59.9156 0.687638 59.7014C0.470084 59.4873 0.297234 59.2314 0.17925 58.949C0.0612669 58.6666 0.000530857 58.3633 0.000612334 58.0569ZM0.159719 76.3109V61.5332H4.53777V76.3109H0.159719Z" fill="url(#paint0_linear_787_2438)"/>
<path d="M24.9907 57.6021H19.5244L12.4395 66.0746V57.6021H7.875V76.3112H12.4395V68.2124L19.896 76.3106H25.3624L16.8202 66.8529L24.9907 57.6021Z" fill="url(#paint1_linear_787_2438)"/>
<path d="M33.771 61.2129C29.0213 61.2129 25.5718 64.4469 25.5718 68.9098C25.5718 73.3726 28.9952 76.6349 33.7449 76.6349C38.5214 76.6349 41.9715 73.3509 41.9715 68.8848C41.9709 64.4449 38.5188 61.2129 33.771 61.2129ZM33.771 72.838C31.5683 72.838 29.9766 71.2617 29.9766 68.8552C30.0103 68.1107 30.2601 67.3924 30.695 66.7895C31.13 66.1865 31.7311 65.7253 32.4237 65.463C33.1164 65.2007 33.8702 65.1488 34.5918 65.3138C35.3135 65.4788 35.9712 65.8534 36.4836 66.3911C36.9959 66.9289 37.3404 67.6063 37.4743 68.3393C37.6082 69.0723 37.5257 69.8288 37.2369 70.5151C36.9482 71.2013 36.4659 71.7872 35.8498 72.2001C35.2338 72.613 34.511 72.8348 33.771 72.838Z" fill="url(#paint2_linear_787_2438)"/>
<path d="M51.0446 61.2129C46.6659 61.2129 43.5874 64.2866 43.5874 69.0707V76.3137H47.9661V68.4323C47.9661 66.4015 49.2396 64.9848 51.0446 64.9848C52.9017 64.9848 54.1491 66.4015 54.1491 68.4323V76.3137H58.5271V69.0687C58.5265 64.2847 55.4487 61.2129 51.0446 61.2129Z" fill="url(#paint3_linear_787_2438)"/>
<path d="M81.9723 61.2127C81.03 61.1832 80.0926 61.3619 79.2262 61.7364C78.3598 62.1108 77.5853 62.6719 76.9572 63.3801C76.3309 62.6697 75.5567 62.1072 74.6898 61.7326C73.823 61.3579 72.8848 61.1804 71.9421 61.2127C67.7231 61.2127 64.751 64.3929 64.751 69.1506V76.3129H69.1564V68.4314C69.1564 66.4007 70.3236 64.984 71.9421 64.984C73.614 64.984 74.7551 66.4007 74.7551 68.4314V76.3129H79.1606V68.4314C79.1606 66.4007 80.3278 64.984 81.9736 64.984C83.5927 64.984 84.7606 66.4007 84.7606 68.4314V76.3129H89.1648V69.1486C89.1634 64.3909 86.1919 61.2127 81.9723 61.2127Z" fill="url(#paint4_linear_787_2438)"/>
<path d="M98.9777 61.2129C94.2012 61.2129 90.7778 64.4738 90.7778 69.0437C90.7778 73.5618 94.0949 76.6355 98.3941 76.6355C99.2664 76.6603 100.134 76.502 100.943 76.1707C101.751 75.8394 102.482 75.3423 103.089 74.7111L103.169 76.3143H107.176V69.202C107.178 64.4719 103.752 61.2129 98.9777 61.2129ZM98.9777 72.8662C97.9643 72.8374 97.0019 72.4125 96.294 71.6815C95.5862 70.9506 95.1885 69.9708 95.1852 68.9498C95.1819 67.9287 95.5732 66.9463 96.2763 66.2107C96.9794 65.4751 97.9391 65.0439 98.9523 65.0085C101.18 65.0085 102.746 66.5847 102.746 68.9636C102.779 69.4756 102.706 69.989 102.53 70.4705C102.353 70.9519 102.079 71.3908 101.724 71.7585C101.368 72.1263 100.94 72.4147 100.467 72.6052C99.9943 72.7957 99.4867 72.8839 98.9777 72.8643V72.8662Z" fill="url(#paint5_linear_787_2438)"/>
<path d="M113.994 56.5869H109.615V76.3115H113.994V56.5869Z" fill="url(#paint6_linear_787_2438)"/>
<path d="M121 56.5869H116.622V76.3115H121V56.5869Z" fill="url(#paint7_linear_787_2438)"/>
<path d="M75.909 4.81386C84.3028 3.189 85.4416 6.08217 85.4416 6.08217C85.4416 6.08217 86.0999 6.83014 85.3758 10.5856C85.1609 10.8327 82.2913 23.7629 82.2913 23.7629C82.2913 23.7629 80.3189 31.5174 77.5489 32.1403C77.5489 32.1403 74.5191 33.5317 68.6077 31.0815L72.7688 30.9292L75.222 30.0649L76.8991 29.1888L77.5333 28.0802L78.8534 26.466L81.0213 24.5878L80.6273 22.8073L80.9721 20.6281L80.8667 19.89L80.7477 18.0113L83.0555 16.0462L83.1924 13.5881L84.1448 11.7284L83.6971 8.93873L82.6491 7.55856L82.7007 6.64516L80.7363 6.43501C79.8168 6.29167 78.8885 6.21421 77.9582 6.20323" fill="#8E8E8E"/>
<path d="M53.5432 33.2176C53.5432 33.2176 57.6857 36.4436 55.9953 39.3877C56.0376 39.3885 54.8856 40.5306 54.8856 40.5306L52.9468 40.2047L51.8362 37.2018L49.9275 33.4242L53.2068 33.2103" fill="#8E8E8E"/>
<path d="M56.7822 28.3287L49.6675 10.9517L63.515 9.6244C66.3246 9.35899 68.9276 9.1168 70.5576 8.97337C72.0602 8.84012 72.2561 8.8305 72.3409 8.83202C75.1793 8.59406 77.0683 9.06192 77.9634 10.2105C78.1753 10.476 78.3278 10.7842 78.4107 11.1142C78.4936 11.4443 78.5048 11.7884 78.4437 12.1231L77.882 16.0398C77.3312 19.893 77.1505 21.279 77.0997 21.7318L77.0878 21.9364C77.0518 22.4637 76.9633 22.986 76.8238 23.4955C76.5491 24.5768 75.9626 25.5518 75.1382 26.2978C74.3137 27.0438 73.2883 27.5275 72.1908 27.6879L56.7822 28.3287ZM51.4606 12.0376L57.5987 27.042L72.1005 26.4388C72.941 26.2961 73.7219 25.9102 74.3477 25.3281C74.9735 24.746 75.4173 23.9929 75.6247 23.1609C75.7186 22.8199 75.7847 22.4717 75.8224 22.1199L75.8507 21.7212C75.8968 21.2316 76.1652 19.2615 76.6502 15.8621L77.2212 11.893C77.2478 11.7293 77.239 11.5617 77.1954 11.4016C77.1519 11.2416 77.0746 11.0928 76.9688 10.9654C76.5606 10.4598 75.3645 9.82708 72.3991 10.0871L71.9419 10.1261L71.9362 10.1136C71.6468 10.1373 71.2124 10.1754 70.6682 10.2221C69.0401 10.3663 66.4384 10.6058 63.6341 10.874L51.4606 12.0376Z" fill="#15151A"/>
<path d="M84.226 5.93756C82.9171 4.37888 80.4488 3.96886 76.895 4.71277L55.9576 6.44695C53.1308 1.29946 46.4542 -0.966834 37.6788 0.652599C37.641 0.65192 37.6065 0.642105 37.5681 0.641415C37.2389 0.640373 36.9138 0.713521 36.6165 0.855484C36.5314 0.886105 36.4484 0.922343 36.368 0.963966C36.1352 1.09363 35.9391 1.28095 35.7982 1.50822C35.6574 1.73549 35.5765 1.99519 35.5631 2.26279C35.5636 2.47016 35.6069 2.6752 35.6903 2.8649C35.7737 3.05459 35.8953 3.22481 36.0474 3.36477C37.4483 3.83858 38.8086 4.42671 40.1146 5.1233C41.6426 6.30315 43.0021 7.68905 44.1547 9.24194L54.1446 30.3769C52.1316 31.5549 50.9091 32.2783 50.1669 32.7647C49.5393 32.509 48.8705 32.371 48.1938 32.3576C44.8063 32.2968 41.9981 35.307 41.9343 39.0677C41.8704 42.8284 44.5745 45.9408 47.962 46.0016C49.2695 45.983 50.5376 45.5497 51.5855 44.7632C52.6335 43.9767 53.4079 42.8773 53.7984 41.6214L67.6849 41.1016C67.8073 44.6871 70.4316 47.5859 73.7004 47.6445C77.0872 47.7053 79.8941 44.6951 79.958 40.9331C80.0219 37.171 77.319 34.062 73.9321 34.0012C70.677 33.9429 67.9668 36.7178 67.7016 40.2759L54.6585 39.2244C54.5714 37.8223 54.1708 35.6331 52.6351 34.1714C53.658 33.5614 54.9799 32.7834 56.0843 32.138L71.6163 32.4166C73.695 32.6881 75.8008 32.1962 77.5472 31.0311C79.7255 29.5409 81.1509 27.0476 81.791 23.6216L81.8693 23.2015C82.2229 21.5866 83.7728 15.1827 84.7748 11.0783C84.9647 10.5367 85.8094 7.8203 84.226 5.93756ZM73.8889 36.5068C75.9036 36.543 77.5083 38.5108 77.4679 40.891C77.4274 43.2712 75.7562 45.1803 73.7422 45.1442C71.8006 45.1093 70.2511 43.2738 70.1786 41.0091L74.6693 40.8415L70.1902 40.4788C70.3536 38.2341 71.9558 36.4722 73.8889 36.5068ZM48.0007 43.4965C45.9854 43.4604 44.3812 41.4959 44.4217 39.1124C44.4622 36.7288 46.1353 34.8264 48.1473 34.8625C48.4314 34.8709 48.713 34.9179 48.9846 35.0023L48.9831 35.0909L49.7124 35.3272C50.3589 35.7456 50.8851 36.3275 51.2383 37.0146C51.5915 37.7018 51.7593 38.4701 51.725 39.2427C51.6858 41.6275 50.016 43.5327 48.002 43.4966L48.0007 43.4965ZM40.9957 2.67805C46.833 2.08082 50.9591 3.44249 53.0831 6.68365L45.8012 7.2878C44.4316 5.52308 42.8123 3.96995 40.9951 2.67804L40.9957 2.67805ZM82.4245 10.2554L82.3735 10.4154C82.3735 10.4154 81.6021 13.5777 80.8386 16.7441C79.957 20.4054 79.4528 22.2034 79.3465 23.1622C77.9207 30.7857 72.5627 30.0513 71.9585 29.9381L56.552 29.6446L47.12 9.6924L77.1796 7.20257L77.3352 7.17975C80.7773 6.44369 81.9373 7.09618 82.323 7.54961C82.9594 8.29973 82.5986 9.79563 82.4225 10.2554L82.4245 10.2554Z" fill="url(#paint8_linear_787_2438)"/>
<path d="M72.3448 9.45507C72.3587 9.44153 71.6975 9.49591 70.6129 9.59123L73.3147 16.1996L77.2683 15.9427C77.5649 13.8346 77.8397 11.975 77.8397 11.975C77.8397 11.975 78.5339 8.92073 72.3448 9.45507Z" fill="#88B92D"/>
<path d="M73.3161 16.202L70.6145 9.59458C68.9843 9.73847 66.3831 9.98102 63.5752 10.2461L66.1973 16.6591L73.3161 16.202Z" fill="#3FACDE"/>
<path d="M75.617 21.8435L76.4666 21.7729C76.5235 21.1829 76.9151 18.4011 77.2632 15.9468L73.3079 16.2037L75.617 21.8435Z" fill="#FE9C2E"/>
<path d="M68.5525 22.4328L75.6159 21.8429L73.3104 16.204L66.1918 16.6623L68.5525 22.4328Z" fill="#005DAA"/>
<path d="M59.2902 17.1157L61.7023 23.0139L68.5555 22.4405L66.1947 16.6699L59.2902 17.1157Z" fill="#3FACDE"/>
<path d="M66.2001 16.6653L63.5775 10.2503C61.2905 10.4657 58.878 10.6946 56.7555 10.8979L59.2955 17.1112L66.2001 16.6653Z" fill="#A2DAE2"/>
<path d="M61.7011 23.0149L63.5035 27.4239L70.4722 27.1355L68.5533 22.4408L61.7011 23.0149Z" fill="#5F2C7F"/>
<path d="M76.4655 21.7773L75.6162 21.848L68.5533 22.438L70.4724 27.1333L72.1253 27.0647C73.0965 26.9136 74.0021 26.4795 74.7303 25.816C75.4585 25.1525 75.9773 24.2887 76.2227 23.3313C76.351 22.8625 76.4326 22.382 76.4661 21.8968C76.4583 21.8993 76.4603 21.8553 76.4655 21.7773Z" fill="#B2241C"/>
<path d="M55.4889 23.5344L57.1886 27.687L63.5045 27.4249L61.7022 23.0157L55.4889 23.5344Z" fill="#00355D"/>
<path d="M59.2937 17.1173L53.0284 17.5196L55.4914 23.5346L61.7058 23.0159L59.2937 17.1173Z" fill="#66B3CD"/>
<path d="M56.7565 10.905C53.2638 11.2358 50.5662 11.499 50.5662 11.499L53.0318 17.5174L59.2971 17.1151L56.7565 10.905Z" fill="#D6EFF4"/>
<path d="M74.7733 32.5343C74.7733 32.5343 81.0182 35.3178 80.1685 40.9747C80.1685 40.9747 82.3108 35.2839 76.3786 32.2978L74.7733 32.5343Z" fill="#8E8E8E"/>
<defs>
<linearGradient id="paint0_linear_787_2438" x1="2.33574" y1="57.4065" x2="2.33574" y2="74.1828" gradientUnits="userSpaceOnUse">
<stop stop-color="#005DAA"/>
<stop offset="1" stop-color="#002B54"/>
</linearGradient>
<linearGradient id="paint1_linear_787_2438" x1="16.6187" y1="60.4271" x2="16.6187" y2="77.995" gradientUnits="userSpaceOnUse">
<stop stop-color="#383737"/>
<stop offset="1" stop-color="#282828"/>
</linearGradient>
<linearGradient id="paint2_linear_787_2438" x1="33.7717" y1="60.4264" x2="33.7717" y2="77.992" gradientUnits="userSpaceOnUse">
<stop stop-color="#383737"/>
<stop offset="1" stop-color="#282828"/>
</linearGradient>
<linearGradient id="paint3_linear_787_2438" x1="51.0573" y1="60.4276" x2="51.0573" y2="77.9899" gradientUnits="userSpaceOnUse">
<stop stop-color="#383737"/>
<stop offset="1" stop-color="#282828"/>
</linearGradient>
<linearGradient id="paint4_linear_787_2438" x1="76.9579" y1="60.4236" x2="76.9579" y2="77.9894" gradientUnits="userSpaceOnUse">
<stop stop-color="#383737"/>
<stop offset="1" stop-color="#282828"/>
</linearGradient>
<linearGradient id="paint5_linear_787_2438" x1="98.977" y1="60.4262" x2="98.977" y2="77.9954" gradientUnits="userSpaceOnUse">
<stop stop-color="#383737"/>
<stop offset="1" stop-color="#282828"/>
</linearGradient>
<linearGradient id="paint6_linear_787_2438" x1="111.805" y1="60.4332" x2="111.805" y2="77.9881" gradientUnits="userSpaceOnUse">
<stop stop-color="#383737"/>
<stop offset="1" stop-color="#282828"/>
</linearGradient>
<linearGradient id="paint7_linear_787_2438" x1="118.811" y1="60.4332" x2="118.811" y2="77.9881" gradientUnits="userSpaceOnUse">
<stop stop-color="#383737"/>
<stop offset="1" stop-color="#282828"/>
</linearGradient>
<linearGradient id="paint8_linear_787_2438" x1="49.1726" y1="-2.80903" x2="73.1196" y2="47.921" gradientUnits="userSpaceOnUse">
<stop stop-color="#313133"/>
<stop offset="0.859" stop-color="#313133"/>
<stop offset="1" stop-color="#313133"/>
</linearGradient>
</defs>
</svg>
