<svg width="32" height="32" viewBox="0 0 32 32" fill="none" xmlns="http://www.w3.org/2000/svg">
<path fill-rule="evenodd" clip-rule="evenodd" d="M20 16C20 13.7905 18.2095 12 16 12C13.7905 12 12 13.7905 12 16C12 18.2095 13.7905 20 16 20C18.2095 20 20 18.2095 20 16Z" stroke="white" stroke-width="1.5" stroke-linecap="round" stroke-linejoin="round"/>
<path d="M28 17.5057V13.6914C28 11.4747 26.203 9.67774 23.9864 9.67774C23.5894 9.67774 23.2292 9.44265 23.0685 9.07964C22.42 7.61531 20.9673 6.66699 19.3658 6.66699H12.6342C11.0327 6.66699 9.58003 7.61531 8.93154 9.07964C8.77078 9.44265 8.41065 9.67774 8.01363 9.67774C5.79696 9.67774 4 11.4747 4 13.6914V17.5057C4 19.8293 4 20.9911 4.35585 21.9158C4.8976 23.3236 6.0101 24.4361 7.41783 24.9778C8.34253 25.3337 9.50434 25.3337 11.828 25.3337H20.172C22.4957 25.3337 23.6575 25.3337 24.5822 24.9778C25.9899 24.4361 27.1024 23.3236 27.6441 21.9158C28 20.9911 28 19.8293 28 17.5057Z" stroke="white" stroke-width="1.5" stroke-linecap="round" stroke-linejoin="round"/>
</svg>
