<svg width="24" height="24" viewBox="0 0 24 24" fill="none" xmlns="http://www.w3.org/2000/svg">
<path d="M12.7499 8.25C12.7499 7.83579 12.4141 7.5 11.9999 7.5C11.5857 7.5 11.2499 7.83579 11.2499 8.25H12.7499ZM8.24988 8.25C8.24988 7.83579 7.91409 7.5 7.49988 7.5C7.08567 7.5 6.74988 7.83579 6.74988 8.25H8.24988ZM17.2499 8.25C17.2499 7.83579 16.9141 7.5 16.4999 7.5C16.0857 7.5 15.7499 7.83579 15.7499 8.25H17.2499ZM3.17467 9.12099L3.8661 8.83044H3.8661L3.17467 9.12099ZM20.8251 9.12098L21.5165 9.41153V9.41153L20.8251 9.12098ZM19.8105 5.72261L19.1319 6.04196V6.04196L19.8105 5.72261ZM20.6192 7.44096L21.2978 7.12161L20.6192 7.44096ZM4.18926 5.7226L3.51065 5.40325L3.51065 5.40325L4.18926 5.7226ZM3.38061 7.44095L4.05923 7.7603H4.05923L3.38061 7.44095ZM11.2499 8.25C11.2499 9.07843 10.5783 9.75 9.74988 9.75V11.25C11.4067 11.25 12.7499 9.90686 12.7499 8.25H11.2499ZM9.74988 9.75C8.92145 9.75 8.24988 9.07843 8.24988 8.25H6.74988C6.74988 9.90685 8.09303 11.25 9.74988 11.25V9.75ZM15.7499 8.25C15.7499 9.07843 15.0783 9.75 14.2499 9.75V11.25C15.9067 11.25 17.2499 9.90685 17.2499 8.25H15.7499ZM14.2499 9.75C13.4215 9.75 12.7499 9.07843 12.7499 8.25H11.2499C11.2499 9.90685 12.593 11.25 14.2499 11.25V9.75ZM6.74988 8.25C6.74988 9.07843 6.07831 9.75 5.24988 9.75V11.25C6.90674 11.25 8.24988 9.90685 8.24988 8.25H6.74988ZM5.24988 9.75C4.6285 9.75 4.09367 9.37199 3.8661 8.83044L2.48323 9.41154C2.93651 10.4902 4.0036 11.25 5.24988 11.25V9.75ZM20.1337 8.83043C19.9061 9.37199 19.3713 9.75 18.7499 9.75V11.25C19.9962 11.25 21.0633 10.4902 21.5165 9.41153L20.1337 8.83043ZM18.7499 9.75C17.9215 9.75 17.2499 9.07843 17.2499 8.25H15.7499C15.7499 9.90685 17.093 11.25 18.7499 11.25V9.75ZM19.1319 6.04196L19.9405 7.76031L21.2978 7.12161L20.4891 5.40326L19.1319 6.04196ZM3.51065 5.40325L2.702 7.1216L4.05923 7.7603L4.86787 6.04195L3.51065 5.40325ZM21.5165 9.41153C21.879 8.54888 21.559 7.67663 21.2978 7.12161L19.9405 7.76031C20.1808 8.27086 20.2274 8.60738 20.1337 8.83044L21.5165 9.41153ZM3.8661 8.83044C3.77237 8.60739 3.81896 8.27086 4.05923 7.7603L2.702 7.1216C2.44081 7.67663 2.12073 8.54888 2.48323 9.41154L3.8661 8.83044ZM6.90371 3.25C5.45111 3.25 4.12916 4.08891 3.51065 5.40325L4.86787 6.04195C5.23898 5.25335 6.03215 4.75 6.90371 4.75V3.25ZM17.096 4.75C17.9676 4.75 18.7608 5.25336 19.1319 6.04196L20.4891 5.40326C19.8706 4.0889 18.5486 3.25 17.096 3.25V4.75ZM6.90371 4.75H17.096V3.25H6.90371V4.75Z" fill="#586BCA"/>
<path d="M14.5 21V17C14.5 15.6193 13.3807 14.5 12 14.5V14.5C10.6193 14.5 9.5 15.6193 9.5 17V21" stroke="#586BCA" stroke-width="1.5"/>
<path d="M4.5 10V13.5C4.5 16.7875 4.5 18.4312 5.40796 19.5376C5.57418 19.7401 5.75989 19.9258 5.96243 20.092C7.06878 21 8.71252 21 12 21C15.2875 21 16.9312 21 18.0376 20.092C18.2401 19.9258 18.4258 19.7401 18.592 19.5376C19.5 18.4312 19.5 16.7875 19.5 13.5V10" stroke="#586BCA" stroke-width="1.5"/>
</svg>
