<svg width="24" height="24" viewBox="0 0 24 24" fill="none" xmlns="http://www.w3.org/2000/svg">
<rect x="3" y="5" width="15.4286" height="12" rx="4" stroke="#586BCA" stroke-width="1.2"/>
<path fill-rule="evenodd" clip-rule="evenodd" d="M5.86279 17.5947C6.05923 17.7725 6.27144 17.9346 6.49785 18.0789C6.9307 18.3546 7.41617 18.5262 7.99607 18.6698C8.56371 18.8103 9.27292 18.9353 10.1678 19.0931L10.1678 19.0931L10.1948 19.0979L13.5713 19.6933L13.5983 19.698C14.4932 19.8558 15.2024 19.9809 15.7839 20.043C16.3779 20.1064 16.8928 20.1112 17.3938 20.0001C18.6237 19.7275 19.695 18.9774 20.3718 17.9149C20.6476 17.482 20.8192 16.9966 20.9628 16.4167C21.1033 15.849 21.2283 15.1398 21.3861 14.2449L21.3909 14.2179L21.3956 14.191C21.5534 13.2961 21.6785 12.5868 21.7406 12.0054C21.804 11.4113 21.8088 10.8965 21.6977 10.3954C21.4251 9.16548 20.675 8.09425 19.6125 7.41737C19.3453 7.24712 19.058 7.11657 18.7408 7.00781C18.7673 7.06523 18.7927 7.12329 18.817 7.18195C19.0134 7.65611 19.0981 8.164 19.1388 8.76002C19.1427 8.81662 19.1461 8.87452 19.1493 8.93375C19.6944 9.39108 20.0776 10.0177 20.2333 10.7201C20.2944 10.9958 20.3044 11.3281 20.2491 11.8461C20.193 12.3707 20.0773 13.0296 19.9137 13.9575C19.7501 14.8853 19.6335 15.5441 19.5067 16.0562C19.3816 16.5618 19.2585 16.8707 19.1068 17.1089C18.6436 17.8359 17.9107 18.3491 17.0692 18.5357C16.7934 18.5968 16.4611 18.6068 15.9432 18.5515C15.4185 18.4954 14.7596 18.3796 13.8318 18.216L11.187 17.7497H8.97259H8.97253C8.06389 17.7497 7.34375 17.7497 6.76035 17.7099C6.43829 17.6879 6.14197 17.6531 5.86279 17.5947Z" fill="#586BCA"/>
<path d="M3.42871 8.42871H18.0001" stroke="#586BCA" stroke-width="1.2" stroke-linecap="round" stroke-linejoin="round"/>
<circle cx="13.2857" cy="13.5718" r="1.28571" stroke="#586BCA" stroke-width="1.2"/>
<path fill-rule="evenodd" clip-rule="evenodd" d="M14.8201 12.8068C14.8778 12.7933 14.9379 12.7861 14.9998 12.7861C15.4337 12.7861 15.7855 13.1379 15.7855 13.5718C15.7855 14.0058 15.4337 14.3576 14.9998 14.3576C14.9379 14.3576 14.8778 14.3504 14.8201 14.3369C14.6572 14.6629 14.3935 14.9298 14.0698 15.0966C14.3407 15.2622 14.6591 15.3576 14.9998 15.3576C15.986 15.3576 16.7855 14.5581 16.7855 13.5718C16.7855 12.5856 15.986 11.7861 14.9998 11.7861C14.6591 11.7861 14.3407 11.8815 14.0698 12.0471C14.3935 12.2139 14.6572 12.4808 14.8201 12.8068Z" fill="#586BCA"/>
</svg>
