<svg width="24" height="24" viewBox="0 0 24 24" fill="none" xmlns="http://www.w3.org/2000/svg">
<path d="M14.8198 3C12.5279 3 11 4.68875 11 6.92465C11 9.16055 13.5465 12.4069 14.8198 12.4069C16.093 12.4069 18.6396 9.16055 18.6396 6.92465C18.6396 4.68875 17.1116 3 14.8198 3Z" stroke="#586BCA" stroke-width="1.5"/>
<circle cx="14.7959" cy="6.5322" r="0.981415" stroke="#586BCA"/>
<path d="M11.3777 9H10.0831C8.48013 9 7.67866 9 7.01191 9.24445C6.12292 9.57038 5.37837 10.2011 4.91072 11.0244C4.55998 11.6419 4.42822 12.4325 4.1647 14.0136C3.80929 16.146 3.63159 17.2123 3.86582 18.0624C4.17813 19.196 4.97337 20.1348 6.04018 20.6292C6.84029 21 7.92121 21 10.0831 21H13.9175C16.0794 21 17.1603 21 17.9604 20.6292C19.0272 20.1348 19.8225 19.196 20.1348 18.0624C20.369 17.2123 20.1913 16.146 19.8359 14.0136C19.5724 12.4325 19.4406 11.6419 19.0899 11.0244C18.7738 10.4679 18.3312 9.9994 17.8029 9.65353" stroke="#586BCA" stroke-width="1.5" stroke-linecap="round" stroke-linejoin="round"/>
<circle cx="8" cy="12.4072" r="1.25" fill="#586BCA"/>
<path d="M6.75 18.1797L10.25 14.6797L13.75 17.6797L17.25 14.1797" stroke="#586BCA" stroke-width="1.5" stroke-linecap="round" stroke-linejoin="round"/>
</svg>
