<svg width="20" height="20" viewBox="0 0 20 20" fill="none" xmlns="http://www.w3.org/2000/svg">
<path d="M10.0166 1.66699C6.94991 1.66699 4.46658 4.15033 4.46658 7.21699V8.96699C4.46658 9.53366 4.23325 10.3837 3.94158 10.867L2.88325 12.6337C2.23325 13.7253 2.68325 14.942 3.88325 15.342C7.86658 16.667 12.1749 16.667 16.1582 15.342C17.2832 14.967 17.7666 13.6503 17.1582 12.6337L16.0999 10.867C15.8082 10.3837 15.5749 9.52533 15.5749 8.96699V7.21699C15.5666 4.16699 13.0666 1.66699 10.0166 1.66699Z" stroke="#586BCA" stroke-width="1.5" stroke-miterlimit="10" stroke-linecap="round"/>
<path d="M12.7751 15.6836C12.7751 17.2086 11.5251 18.4586 10.0001 18.4586C9.24176 18.4586 8.54176 18.1419 8.04176 17.6419C7.54176 17.1419 7.2251 16.4419 7.2251 15.6836" stroke="#586BCA" stroke-width="1.5" stroke-miterlimit="10"/>
</svg>
