<svg width="24" height="24" viewBox="0 0 24 24" fill="none" xmlns="http://www.w3.org/2000/svg">
<path d="M10.0388 4.55725C10.5534 2.48092 13.4466 2.48092 13.9612 4.55725C14.2701 5.80352 15.6096 6.46125 16.7577 5.93043C18.6707 5.04606 20.4746 7.35252 19.2033 9.0573C18.4403 10.0805 18.7711 11.5585 19.894 12.1428C21.7648 13.1163 21.121 15.9925 19.0212 16.0419C17.7608 16.0716 16.8339 17.2568 17.0859 18.5163C17.5059 20.6147 14.8991 21.8947 13.552 20.2516C12.7434 19.2654 11.2566 19.2654 10.448 20.2516C9.10089 21.8947 6.49414 20.6147 6.91407 18.5163C7.16613 17.2568 6.23916 16.0716 4.97881 16.0419C2.879 15.9925 2.23519 13.1163 4.10599 12.1428C5.22889 11.5585 5.55972 10.0805 4.79668 9.0573C3.52541 7.35252 5.32934 5.04606 7.24226 5.93043C8.39044 6.46126 9.72994 5.80352 10.0388 4.55725Z" stroke="#586BCA" stroke-width="1.5"/>
<ellipse cx="12.0001" cy="12.3565" rx="3.08214" ry="3.14265" stroke="#586BCA" stroke-width="1.5"/>
</svg>
