<svg width="28" height="28" viewBox="0 0 28 28" fill="none" xmlns="http://www.w3.org/2000/svg">
<path fill-rule="evenodd" clip-rule="evenodd" d="M9.96618 4.53687C11.7101 3.77978 12.8157 3.29984 14.0009 3.29984C15.1862 3.29984 16.2917 3.77978 18.0356 4.53687L18.4923 4.73502C19.7588 5.28443 20.7653 5.72108 21.549 6.15712C22.3563 6.60631 22.9885 7.08684 23.4756 7.75559C23.5847 7.90539 23.6865 8.06043 23.7805 8.22014C24.2001 8.93314 24.3893 9.70439 24.4801 10.6238C24.5683 11.5163 24.5682 12.6135 24.5682 13.994V14.0806C24.5682 15.4611 24.5683 16.5583 24.4801 17.4508C24.3893 18.3702 24.2001 19.1414 23.7805 19.8544C23.6865 20.0141 23.5847 20.1691 23.4756 20.3189C22.9885 20.9877 22.3563 21.4682 21.549 21.9174C20.7653 22.3535 19.7588 22.7901 18.4923 23.3395L18.0357 23.5377C16.2917 24.2948 15.1862 24.7747 14.0009 24.7747C12.8157 24.7747 11.7101 24.2948 9.96622 23.5377L9.50947 23.3395C8.24304 22.7901 7.2365 22.3535 6.45283 21.9174C5.64552 21.4682 5.01329 20.9877 4.52621 20.3189C4.4171 20.1691 4.31536 20.0141 4.22135 19.8544C3.8017 19.1414 3.61248 18.3701 3.5217 17.4508C3.43358 16.5583 3.43358 15.4611 3.43359 14.0806V13.9939C3.43358 12.6134 3.43358 11.5163 3.5217 10.6238C3.61248 9.70439 3.8017 8.93314 4.22135 8.22014C4.31536 8.06043 4.4171 7.90539 4.52621 7.75559C5.01329 7.08684 5.64552 6.60631 6.45283 6.15712C7.23651 5.72108 8.24305 5.28442 9.5095 4.73502L9.96618 4.53687ZM14.0009 4.9665C13.204 4.9665 12.4334 5.28332 10.4586 6.14003L10.2126 6.24675C8.89744 6.81729 7.96663 7.22212 7.26317 7.61353C7.14783 7.6777 7.04035 7.7406 6.93996 7.80275C6.80766 7.88465 6.82638 8.07719 6.96893 8.13956L8.9529 9.00754C9.004 9.0299 9.06211 9.0299 9.11321 9.00755L16.1727 5.91963C16.3335 5.84929 16.3317 5.6209 16.1693 5.55423C15.1455 5.13386 14.5801 4.9665 14.0009 4.9665ZM18.7687 6.67353C18.7176 6.65105 18.6594 6.65103 18.6083 6.67341L11.5311 9.76905C11.3713 9.83895 11.3713 10.0656 11.5311 10.1355L12.4159 10.5226C13.4263 10.9647 14.5755 10.9647 15.5859 10.5226L21.0329 8.13955C21.1754 8.07719 21.1942 7.88465 21.0619 7.80275C20.9615 7.7406 20.854 7.6777 20.7387 7.61352C20.2241 7.32724 19.588 7.03377 18.7687 6.67353ZM8.12449 10.6373C8.19729 10.6691 8.24432 10.741 8.24432 10.8205V14.7094C8.24432 15.1696 8.61742 15.5427 9.07766 15.5427C9.53789 15.5427 9.91099 15.1696 9.91099 14.7094V11.7247C9.91099 11.5804 10.059 11.4836 10.1912 11.5414L11.6843 12.1947C11.8437 12.2644 12.0055 12.3266 12.1691 12.3813C12.6869 12.5544 13.0884 13.0085 13.0884 13.5544L13.0885 22.7107C13.0885 22.8428 12.9629 22.9384 12.8372 22.8979C12.2737 22.7166 11.5501 22.408 10.4586 21.9345L10.2126 21.8278C8.89745 21.2572 7.96663 20.8524 7.26318 20.461C6.57517 20.0782 6.16699 19.7408 5.87341 19.3377C5.79621 19.2317 5.72422 19.122 5.6577 19.009C5.40475 18.5792 5.25767 18.0705 5.1803 17.287C5.1012 16.4859 5.10026 15.4708 5.10026 14.0373C5.10026 12.6037 5.1012 11.5887 5.1803 10.7876C5.22497 10.3352 5.29287 9.97443 5.39097 9.66758C5.42553 9.55949 5.54692 9.50958 5.65089 9.55507L8.12449 10.6373ZM17.5433 21.9345C16.4519 22.408 15.7283 22.7165 15.1648 22.8978C15.0391 22.9383 14.9136 22.8427 14.9136 22.7107L14.9135 13.5544C14.9135 13.0085 15.315 12.5544 15.8328 12.3813C15.9964 12.3266 16.1581 12.2644 16.3175 12.1947L22.3509 9.55506C22.4549 9.50957 22.5763 9.55948 22.6109 9.66757C22.709 9.97443 22.7769 10.3352 22.8215 10.7876C22.9006 11.5887 22.9016 12.6037 22.9016 14.0373C22.9016 15.4708 22.9006 16.4859 22.8215 17.287C22.7442 18.0705 22.5971 18.5792 22.3441 19.009C22.2776 19.122 22.2056 19.2317 22.1284 19.3377C21.8348 19.7408 21.4267 20.0782 20.7387 20.461C20.0352 20.8524 19.1044 21.2573 17.7892 21.8278L17.5433 21.9345Z" fill="white"/>
</svg>
