<svg width="32" height="32" viewBox="0 0 32 32" fill="none" xmlns="http://www.w3.org/2000/svg">
<path d="M9.50323 21.6786L5.01081 22.7126C4.40548 22.852 3.97656 23.3908 3.97656 24.012V26.4917C3.97656 27.3557 4.78569 27.9915 5.62517 27.7872L9.09685 26.9423C9.52643 26.8378 9.97989 26.953 10.3075 27.2499L13.6118 30.2444C14.5692 31.1121 16.0109 31.1685 17.0333 30.3784L27.3826 22.3796C27.832 22.0322 28.012 21.4382 27.831 20.8998L27.7417 20.6342C27.4836 19.8663 26.6058 19.5042 25.8813 19.8667L17.0824 24.2691C16.7012 24.4598 16.2518 24.4568 15.8732 24.2609L11.3267 21.9088C10.7654 21.6184 10.1191 21.5368 9.50323 21.6786Z" stroke="white" stroke-width="1.5" stroke-linecap="round" stroke-linejoin="round"/>
<path fill-rule="evenodd" clip-rule="evenodd" d="M12.3067 2.90278C13.6146 2.33496 14.4438 1.97501 15.3327 1.97501C16.2217 1.97501 17.0508 2.33496 18.3588 2.90278L18.7013 3.0514C19.6511 3.46345 20.406 3.79094 20.9938 4.11797C21.5993 4.45486 22.0734 4.81526 22.4387 5.31682C22.5206 5.42917 22.5969 5.54545 22.6674 5.66523C22.9821 6.19998 23.124 6.77842 23.1921 7.46796C23.2582 8.13733 23.2582 8.96023 23.2582 9.99561V10.0606C23.2582 11.0959 23.2582 11.9188 23.1921 12.5882C23.124 13.2777 22.9821 13.8562 22.6674 14.3909C22.5969 14.5107 22.5206 14.627 22.4388 14.7393C22.0734 15.2409 21.5993 15.6013 20.9938 15.9382C20.406 16.2652 19.6511 16.5927 18.7013 17.0048L18.3588 17.1534C17.0508 17.7212 16.2216 18.0812 15.3327 18.0812C14.4438 18.0812 13.6146 17.7212 12.3067 17.1534L11.9641 17.0048C11.0143 16.5927 10.2594 16.2652 9.67165 15.9382C9.06617 15.6013 8.592 15.2409 8.22669 14.7393C8.14485 14.627 8.06855 14.5107 7.99805 14.3909C7.6833 13.8562 7.54139 13.2777 7.47331 12.5882C7.40721 11.9188 7.40722 11.096 7.40723 10.0606V9.99557C7.40722 8.96021 7.40721 8.13732 7.47331 7.46796C7.54139 6.77842 7.6833 6.19999 7.99805 5.66524C8.06855 5.54545 8.14485 5.42917 8.22669 5.31682C8.592 4.81526 9.06617 4.45486 9.67165 4.11797C10.2594 3.79094 11.0143 3.46345 11.9642 3.05139L12.3067 2.90278ZM15.3327 3.22501C14.735 3.22501 14.1571 3.46262 12.676 4.10516L12.4915 4.18519C11.5051 4.6131 10.807 4.91672 10.2794 5.21027C10.2212 5.24266 10.1657 5.27462 10.1126 5.30626C9.97898 5.38597 9.99723 5.57789 10.1398 5.64026L11.5267 6.24702C11.5778 6.26938 11.6359 6.26938 11.687 6.24703L16.8552 3.98639C17.016 3.91605 17.0144 3.68782 16.8517 3.62207C16.1507 3.33886 15.7465 3.22501 15.3327 3.22501ZM18.9287 4.51414C18.8776 4.49164 18.8193 4.49158 18.7682 4.51396L13.5851 6.78111C13.4253 6.85101 13.4253 7.07767 13.5851 7.14758L14.1439 7.39208C14.9018 7.72363 15.7636 7.72363 16.5215 7.39208L20.5256 5.64026C20.6682 5.57789 20.6865 5.38597 20.5528 5.30626C20.4998 5.27462 20.4442 5.24266 20.386 5.21027C20.0044 4.99791 19.5334 4.78028 18.9287 4.51414ZM10.8954 7.46497C10.9682 7.49682 11.0153 7.56874 11.0153 7.6482V10.5322C11.0153 10.8773 11.2951 11.1572 11.6403 11.1572C11.9855 11.1572 12.2653 10.8773 12.2653 10.5322V8.37008C12.2653 8.22585 12.4133 8.12904 12.5454 8.18685L13.5953 8.64616C13.7148 8.69846 13.8361 8.74511 13.9588 8.78612C14.3472 8.91592 14.6483 9.25647 14.6483 9.66592L14.6484 16.4676C14.6484 16.5996 14.5229 16.695 14.3976 16.6531C13.984 16.5149 13.4549 16.2889 12.676 15.951L12.4915 15.871C11.5051 15.4431 10.807 15.1394 10.2794 14.8459C9.76341 14.5588 9.45728 14.3057 9.23709 14.0034C9.17919 13.9239 9.12519 13.8416 9.0753 13.7569C8.8856 13.4346 8.77528 13.053 8.71726 12.4654C8.65793 11.8645 8.65723 11.1033 8.65723 10.0281C8.65723 8.95291 8.65793 8.19163 8.71726 7.59079C8.74838 7.27561 8.79454 7.01972 8.85993 6.80045C8.89236 6.69171 9.01384 6.64177 9.1178 6.68726L10.8954 7.46497ZM17.9895 15.951C17.2106 16.2889 16.6816 16.5148 16.268 16.6531C16.1427 16.6949 16.0172 16.5996 16.0172 16.4675L16.0172 9.66593C16.0171 9.25647 16.3183 8.91591 16.7066 8.78611C16.8293 8.7451 16.9506 8.69845 17.0701 8.64616L21.5476 6.68725C21.6516 6.64177 21.7731 6.6917 21.8055 6.80045C21.8709 7.01971 21.9171 7.27561 21.9482 7.59079C22.0075 8.19163 22.0082 8.95291 22.0082 10.0281C22.0082 11.1033 22.0075 11.8645 21.9482 12.4654C21.8902 13.053 21.7798 13.4346 21.5901 13.7569C21.5402 13.8416 21.4862 13.9239 21.4283 14.0034C21.2082 14.3057 20.902 14.5588 20.386 14.8459C19.8584 15.1394 19.1603 15.4431 18.174 15.871L17.9895 15.951Z" fill="white"/>
</svg>
