<svg width="28" height="28" viewBox="0 0 28 28" fill="none" xmlns="http://www.w3.org/2000/svg">
<path d="M14.7513 9.83318C14.7513 9.41897 14.4155 9.08318 14.0013 9.08318C13.5871 9.08318 13.2513 9.41897 13.2513 9.83318H14.7513ZM9.75128 9.83318C9.75128 9.41897 9.41549 9.08318 9.00128 9.08318C8.58706 9.08318 8.25128 9.41897 8.25128 9.83318H9.75128ZM19.7513 9.83318C19.7513 9.41897 19.4155 9.08318 19.0013 9.08318C18.5871 9.08318 18.2513 9.41897 18.2513 9.83318H19.7513ZM4.19549 10.801L4.88692 10.5104H4.88692L4.19549 10.801ZM23.8071 10.8009L24.4985 11.0915V11.0915L23.8071 10.8009ZM22.6798 7.02497L22.0012 7.34432L22.0012 7.34432L22.6798 7.02497ZM23.5782 8.93425L24.2569 8.6149L23.5782 8.93425ZM5.32281 7.02496L4.6442 6.70561L5.32281 7.02496ZM4.42431 8.93424L5.10293 9.25359H5.10293L4.42431 8.93424ZM13.2513 9.83318C13.2513 10.7997 12.4678 11.5832 11.5013 11.5832V13.0832C13.2962 13.0832 14.7513 11.6281 14.7513 9.83318H13.2513ZM11.5013 11.5832C10.5348 11.5832 9.75128 10.7997 9.75128 9.83318H8.25128C8.25128 11.6281 9.70635 13.0832 11.5013 13.0832V11.5832ZM18.2513 9.83318C18.2513 10.7997 17.4678 11.5832 16.5013 11.5832V13.0832C18.2962 13.0832 19.7513 11.6281 19.7513 9.83318H18.2513ZM16.5013 11.5832C15.5348 11.5832 14.7513 10.7997 14.7513 9.83318H13.2513C13.2513 11.6281 14.7064 13.0832 16.5013 13.0832V11.5832ZM8.25128 9.83318C8.25128 10.7997 7.46778 11.5832 6.50128 11.5832V13.0832C8.2962 13.0832 9.75128 11.6281 9.75128 9.83318H8.25128ZM6.50128 11.5832C5.77614 11.5832 5.15231 11.142 4.88692 10.5104L3.50405 11.0915C3.99515 12.2602 5.15124 13.0832 6.50128 13.0832V11.5832ZM23.1156 10.5104C22.8502 11.142 22.2264 11.5832 21.5013 11.5832V13.0832C22.8513 13.0832 24.0074 12.2602 24.4985 11.0915L23.1156 10.5104ZM21.5013 11.5832C20.5348 11.5832 19.7513 10.7997 19.7513 9.83318H18.2513C18.2513 11.6281 19.7064 13.0832 21.5013 13.0832V11.5832ZM22.0012 7.34432L22.8996 9.2536L24.2569 8.6149L23.3584 6.70562L22.0012 7.34432ZM4.6442 6.70561L3.7457 8.61489L5.10293 9.25359L6.00142 7.34431L4.6442 6.70561ZM24.4985 11.0915C24.8863 10.1685 24.5459 9.22912 24.2569 8.6149L22.8996 9.2536C23.1678 9.82335 23.2347 10.227 23.1156 10.5104L24.4985 11.0915ZM4.88692 10.5104C4.76785 10.227 4.83481 9.82335 5.10293 9.25359L3.7457 8.61489C3.45665 9.22912 3.11621 10.1685 3.50405 11.0915L4.88692 10.5104ZM8.33887 4.36096C6.75714 4.36096 5.31769 5.27444 4.6442 6.70561L6.00142 7.34431C6.42751 6.43888 7.33818 5.86096 8.33887 5.86096V4.36096ZM19.6637 5.86096C20.6644 5.86096 21.5751 6.43889 22.0012 7.34432L23.3584 6.70562C22.6849 5.27444 21.2454 4.36096 19.6637 4.36096V5.86096ZM8.33887 5.86096H19.6637V4.36096H8.33887V5.86096Z" fill="white"/>
<path d="M16.7792 23.9998V19.5554C16.7792 18.0213 15.5355 16.7776 14.0014 16.7776V16.7776C12.4673 16.7776 11.2236 18.0213 11.2236 19.5554V23.9998" stroke="white" stroke-width="1.5"/>
<path d="M5.66797 11.7776V15.6665C5.66797 19.3193 5.66797 21.1456 6.67681 22.3749C6.8615 22.6 7.06785 22.8063 7.29289 22.991C8.52217 23.9998 10.3485 23.9998 14.0013 23.9998C17.6541 23.9998 19.4804 23.9998 20.7097 22.991C20.9348 22.8063 21.1411 22.6 21.3258 22.3749C22.3346 21.1456 22.3346 19.3193 22.3346 15.6665V11.7776" stroke="white" stroke-width="1.5"/>
</svg>
