<svg width="35" height="24" viewBox="0 0 35 24" fill="none" xmlns="http://www.w3.org/2000/svg">
<path d="M33.5702 3.74904C33.375 3.02308 32.9923 2.36104 32.4605 1.82918C31.9286 1.29733 31.2662 0.914313 30.5395 0.718471C27.8648 1.45785e-07 17.1429 0 17.1429 0C17.1429 0 6.42092 -1.45785e-07 3.74617 0.71465C3.01921 0.909856 2.35647 1.29266 1.82451 1.82461C1.29255 2.35656 0.910099 3.01894 0.715561 3.74522C-1.45971e-07 6.42038 0 12 0 12C0 12 -1.45971e-07 17.5796 0.715561 20.251C1.10969 21.7261 2.27296 22.8879 3.74617 23.2815C6.42092 24 17.1429 24 17.1429 24C17.1429 24 27.8648 24 30.5395 23.2815C32.0166 22.8879 33.176 21.7261 33.5702 20.251C34.2857 17.5796 34.2857 12 34.2857 12C34.2857 12 34.2857 6.42038 33.5702 3.74904ZM13.7372 17.121V6.87898L22.6148 11.9618L13.7372 17.121Z" fill="#171732"/>
</svg>
