<svg width="25" height="25" viewBox="0 0 25 25" fill="none" xmlns="http://www.w3.org/2000/svg">
<path d="M8.99988 19.5H8.49988C4.49988 19.5 2.49988 18.5 2.49988 13.5V8.5C2.49988 4.5 4.49988 2.5 8.49988 2.5H16.4999C20.4999 2.5 22.4999 4.5 22.4999 8.5V13.5C22.4999 17.5 20.4999 19.5 16.4999 19.5H15.9999C15.6899 19.5 15.3899 19.65 15.1999 19.9L13.6999 21.9C13.0399 22.78 11.9599 22.78 11.2999 21.9L9.79988 19.9C9.63988 19.68 9.26988 19.5 8.99988 19.5Z" stroke="#0F172A" stroke-width="1.5" stroke-miterlimit="10" stroke-linecap="round" stroke-linejoin="round"/>
<path d="M16.4966 11.5H16.5056" stroke="#0F172A" stroke-width="2" stroke-linecap="round" stroke-linejoin="round"/>
<path d="M12.4954 11.5H12.5043" stroke="#0F172A" stroke-width="2" stroke-linecap="round" stroke-linejoin="round"/>
<path d="M8.49451 11.5H8.50349" stroke="#0F172A" stroke-width="2" stroke-linecap="round" stroke-linejoin="round"/>
</svg>
