<svg width="109" height="75" viewBox="0 0 109 75" fill="none" xmlns="http://www.w3.org/2000/svg">
<path d="M105.256 21.695C105.44 21.3811 105.506 21.0386 105.309 20.7597L105.306 20.7502L105.274 20.6555L105.238 20.6674C101.286 15.8254 97.0098 10.9996 90.739 9.23002L90.739 9.23C85.1107 7.64661 79.0687 8.57414 73.7836 10.8496L73.7835 10.8496C69.4319 12.7252 65.6173 15.6853 62.4421 19.1969C57.7665 14.8519 50.5433 15.5796 45.0674 18.0124C39.5189 20.4774 33.9634 24.8133 29.4732 29.2403C20.9456 37.6425 14.5864 48.2517 11.4923 59.841C11.1039 61.2759 10.7839 62.7237 10.5132 64.1817C10.4714 64.4034 10.4862 64.5874 10.5602 64.7303C10.6356 64.8759 10.7648 64.964 10.9194 65.0069C11.2192 65.0901 11.6336 65.01 12.044 64.8501C12.4594 64.6883 12.8918 64.4366 13.2366 64.1507C13.5774 63.868 13.8497 63.538 13.9159 63.215L13.9159 63.2148C15.9929 52.9741 20.4067 43.3588 27.0171 35.242C30.2821 31.2378 34.0273 27.6071 38.199 24.5674L38.1991 24.5673C42.7054 21.2743 47.9994 18.0396 53.7695 18.9532C56.1339 19.3278 58.3891 20.4117 59.9689 22.2093C59.8335 22.3908 59.6997 22.5732 59.5675 22.7564C57.6946 25.3511 56.0906 28.1185 54.7084 31.0014L54.7083 31.0018C54.0282 32.4347 53.3947 33.8974 52.8104 35.3705L52.8011 35.3941C52.2217 36.8548 51.6259 38.3571 51.5848 39.9657L51.5847 39.9662C51.5558 41.3561 52.1037 42.7897 53.2364 43.6489C54.4417 44.567 56.0172 44.4362 57.3244 43.8916L57.3245 43.8916C60.2742 42.6615 62.5146 39.652 63.9258 36.9033C65.2988 34.2391 66.138 30.9903 66.0526 27.841C65.9853 25.3576 65.3426 22.9322 63.9294 20.9058C66.0676 18.3207 68.5668 16.0355 71.4633 14.3555L71.4633 14.3555C76.1941 11.61 81.9679 10.5046 87.3244 11.675L87.3245 11.675C93.7275 13.0663 98.086 18.0109 102.093 22.8773L102.093 22.8775C102.335 23.1703 102.723 23.2259 103.121 23.1544C103.523 23.0825 103.961 22.8791 104.344 22.6163C104.726 22.3537 105.063 22.0252 105.256 21.695ZM60.684 25.4559C60.9104 25.0898 61.1425 24.7259 61.3804 24.3648C62.2817 26.2322 62.678 28.4265 62.6039 30.5346C62.5071 33.287 61.6628 35.8874 60.2905 38.1888C59.7022 39.1753 59.0039 40.1252 58.1873 40.9339L58.1552 40.9654C57.779 41.3352 57.4769 41.6321 56.9842 41.5609L56.9835 41.5608C56.3605 41.4751 55.8644 40.9732 55.529 40.4331C54.8519 39.3325 54.932 38.0179 55.3079 36.6929C55.5897 35.6993 56.0325 34.716 56.4325 33.8277C56.5665 33.5301 56.6958 33.2431 56.8125 32.97C57.9225 30.3777 59.2011 27.8559 60.684 25.4559Z" fill="#FB923C" stroke="#FB923C" stroke-width="0.2"/>
<path d="M20.2399 55.6493C20.7511 54.9255 21.5683 54.2246 22.5156 54.1402L22.516 54.1402C22.8797 54.1092 23.2168 54.2276 23.4002 54.463C23.5905 54.7072 23.5934 55.0472 23.3448 55.4021L23.3447 55.4022L16.6383 64.9436L16.6381 64.9438C15.5133 66.5348 14.3965 68.1231 13.2797 69.7115C13.2797 69.7116 13.2796 69.7116 13.2796 69.7116L13.1978 69.6541C12.1865 71.0976 11.1258 72.4759 9.5859 73.3801L20.2399 55.6493ZM20.2399 55.6493L20.2383 55.6483L14.1998 64.2355L14.1998 64.2356L11.2902 68.3691L20.2399 55.6493ZM9.80077 70.528C9.58223 70.2037 9.40667 69.8405 9.2587 69.4583C9.03601 68.8831 8.87869 68.2734 8.72971 67.6961C8.69067 67.5448 8.6522 67.3957 8.61328 67.2501C8.24334 65.8495 7.92489 64.4313 7.60596 63.0111C7.56612 62.8337 7.52628 62.6562 7.48633 62.4788C7.44076 62.2767 7.39528 62.0737 7.34964 61.8701C6.6731 58.8511 5.9623 55.6792 4.4527 52.9448L4.45259 52.9446C4.27228 52.6198 3.92513 52.5336 3.55515 52.5825C3.18515 52.6315 2.7661 52.8163 2.38757 53.0694C2.00843 53.323 1.66068 53.6513 1.43705 53.9965C1.21507 54.3393 1.10369 54.7185 1.24004 55.059L1.24009 55.0591C2.57541 58.3817 3.45216 61.7434 4.23518 65.2325L4.23525 65.2328C4.25798 65.3326 4.28068 65.4325 4.30339 65.5324C4.67029 67.1463 5.03834 68.7653 5.52746 70.3598L9.80077 70.528ZM9.80077 70.528C9.88326 70.425 9.96388 70.3195 10.043 70.212C10.2654 69.9098 10.4748 69.5942 10.6801 69.2811C10.7061 69.2415 10.732 69.2019 10.7578 69.1624C10.9359 68.8903 11.1119 68.6214 11.2901 68.3692L9.80077 70.528Z" fill="#FB923C" stroke="#FB923C" stroke-width="0.2"/>
</svg>
