<svg width="22" height="22" viewBox="0 0 22 22" fill="none" xmlns="http://www.w3.org/2000/svg">
<path d="M2.75 11.9168C2.75 8.45986 2.75 6.73138 3.82394 5.65744C4.89788 4.5835 6.62637 4.5835 10.0833 4.5835H11.9167C15.3736 4.5835 17.1021 4.5835 18.1761 5.65744C19.25 6.73138 19.25 8.45986 19.25 11.9168C19.25 15.3738 19.25 17.1023 18.1761 18.1762C17.1021 19.2502 15.3736 19.2502 11.9167 19.2502H10.0833C6.62637 19.2502 4.89788 19.2502 3.82394 18.1762C2.75 17.1023 2.75 15.3738 2.75 11.9168Z" stroke="url(#paint0_linear_1675_4992)" stroke-width="1.5"/>
<path d="M7.33398 2.75V6.41667" stroke="url(#paint1_linear_1675_4992)" stroke-width="1.5" stroke-linecap="round" stroke-linejoin="round"/>
<path d="M14.666 2.75V6.41667" stroke="url(#paint2_linear_1675_4992)" stroke-width="1.5" stroke-linecap="round" stroke-linejoin="round"/>
<path d="M2.75 9.1665H19.25" stroke="url(#paint3_linear_1675_4992)" stroke-width="1.5" stroke-linejoin="round"/>
<circle cx="6.41667" cy="12.3752" r="0.916667" fill="url(#paint4_linear_1675_4992)"/>
<circle cx="6.41667" cy="16.0417" r="0.916667" fill="url(#paint5_linear_1675_4992)"/>
<circle cx="11.0007" cy="12.3752" r="0.916667" fill="url(#paint6_linear_1675_4992)"/>
<circle cx="11.0007" cy="16.0417" r="0.916667" fill="url(#paint7_linear_1675_4992)"/>
<circle cx="15.5827" cy="12.3752" r="0.916667" fill="url(#paint8_linear_1675_4992)"/>
<circle cx="15.5827" cy="16.0417" r="0.916667" fill="url(#paint9_linear_1675_4992)"/>
<defs>
<linearGradient id="paint0_linear_1675_4992" x1="3.59184" y1="6.82839" x2="14.6553" y2="20.1046" gradientUnits="userSpaceOnUse">
<stop stop-color="#91AAFF"/>
<stop offset="1" stop-color="#3752D7"/>
</linearGradient>
<linearGradient id="paint1_linear_1675_4992" x1="7.385" y1="3.31122" x2="8.89341" y2="3.75003" gradientUnits="userSpaceOnUse">
<stop stop-color="#91AAFF"/>
<stop offset="1" stop-color="#3752D7"/>
</linearGradient>
<linearGradient id="paint2_linear_1675_4992" x1="14.717" y1="3.31122" x2="16.2254" y2="3.75003" gradientUnits="userSpaceOnUse">
<stop stop-color="#91AAFF"/>
<stop offset="1" stop-color="#3752D7"/>
</linearGradient>
<linearGradient id="paint3_linear_1675_4992" x1="3.59184" y1="9.31957" x2="3.6787" y2="10.8484" gradientUnits="userSpaceOnUse">
<stop stop-color="#91AAFF"/>
<stop offset="1" stop-color="#3752D7"/>
</linearGradient>
<linearGradient id="paint4_linear_1675_4992" x1="5.59354" y1="11.7391" x2="6.9966" y2="13.2357" gradientUnits="userSpaceOnUse">
<stop stop-color="#91AAFF"/>
<stop offset="1" stop-color="#3752D7"/>
</linearGradient>
<linearGradient id="paint5_linear_1675_4992" x1="5.59354" y1="15.4056" x2="6.9966" y2="16.9022" gradientUnits="userSpaceOnUse">
<stop stop-color="#91AAFF"/>
<stop offset="1" stop-color="#3752D7"/>
</linearGradient>
<linearGradient id="paint6_linear_1675_4992" x1="10.1775" y1="11.7391" x2="11.5806" y2="13.2357" gradientUnits="userSpaceOnUse">
<stop stop-color="#91AAFF"/>
<stop offset="1" stop-color="#3752D7"/>
</linearGradient>
<linearGradient id="paint7_linear_1675_4992" x1="10.1775" y1="15.4056" x2="11.5806" y2="16.9022" gradientUnits="userSpaceOnUse">
<stop stop-color="#91AAFF"/>
<stop offset="1" stop-color="#3752D7"/>
</linearGradient>
<linearGradient id="paint8_linear_1675_4992" x1="14.7596" y1="11.7391" x2="16.1626" y2="13.2357" gradientUnits="userSpaceOnUse">
<stop stop-color="#91AAFF"/>
<stop offset="1" stop-color="#3752D7"/>
</linearGradient>
<linearGradient id="paint9_linear_1675_4992" x1="14.7596" y1="15.4056" x2="16.1626" y2="16.9022" gradientUnits="userSpaceOnUse">
<stop stop-color="#91AAFF"/>
<stop offset="1" stop-color="#3752D7"/>
</linearGradient>
</defs>
</svg>
