<svg width="53" height="50" viewBox="0 0 53 50" fill="none" xmlns="http://www.w3.org/2000/svg">
<path d="M42.4856 5.70564C51.0046 4.05654 52.1603 6.99286 52.1603 6.99286C52.1603 6.99286 52.8285 7.75198 52.0936 11.5634C51.8754 11.8142 48.963 24.9373 48.963 24.9373C48.963 24.9373 46.9613 32.8075 44.15 33.4397C44.15 33.4397 41.075 34.8518 35.0753 32.3651L39.2985 32.2105L41.7883 31.3333L43.4905 30.4442L44.1342 29.3189L45.4739 27.6808L47.6742 25.7745L47.2743 23.9675L47.6242 21.7558L47.5173 21.0066L47.3965 19.0999L49.7387 17.1055L49.8776 14.6107L50.8442 12.7233L50.3898 9.89203L49.3262 8.49127L49.3785 7.56425L47.3849 7.35096C46.4517 7.20548 45.5095 7.12687 44.5653 7.11573" fill="#94A3B8"/>
<path d="M19.7875 34.5306C19.7875 34.5306 23.9918 37.8047 22.2761 40.7927C22.3191 40.7935 21.1499 41.9527 21.1499 41.9527L19.1822 41.6219L18.055 38.5742L16.1178 34.7402L19.4461 34.5232" fill="#94A3B8"/>
<path d="M23.0684 29.5733L15.848 11.937L29.902 10.5902C32.7535 10.3209 35.3953 10.0752 37.0496 9.92964C38.5747 9.79445 38.7735 9.78469 38.8595 9.78624C41.7403 9.54479 43.6575 10.0197 44.5659 11.1854C44.7809 11.4548 44.9357 11.7677 45.0198 12.1027C45.1039 12.4376 45.1153 12.7869 45.0533 13.1265L44.4831 17.1017C43.924 21.0123 43.7406 22.419 43.6891 22.8785L43.6769 23.0862C43.6404 23.6214 43.5506 24.1515 43.409 24.6686C43.1302 25.7659 42.5349 26.7555 41.6982 27.5126C40.8614 28.2697 39.8207 28.7605 38.7069 28.9233L23.0684 29.5733ZM17.6678 13.0391L23.8971 28.2675L38.6152 27.6556C39.4682 27.5108 40.2608 27.1192 40.896 26.5284C41.5311 25.9376 41.9815 25.1733 42.192 24.3289C42.2873 23.9828 42.3544 23.6294 42.3927 23.2723L42.4214 22.8677C42.4683 22.3708 42.7406 20.3714 43.2329 16.9213L43.8125 12.893C43.8395 12.7269 43.8306 12.5567 43.7864 12.3943C43.7422 12.2318 43.6638 12.0808 43.5564 11.9516C43.1421 11.4384 41.9282 10.7962 38.9186 11.06L38.4545 11.0996L38.4488 11.0869C38.155 11.1109 37.7141 11.1496 37.1618 11.197C35.5095 11.3433 32.869 11.5864 30.0228 11.8584L17.6678 13.0391Z" fill="#0F172A"/>
<path d="M50.9278 6.84741C49.5993 5.26547 47.0942 4.84934 43.4874 5.60435L22.2378 7.36439C19.3688 2.14013 12.5927 -0.159964 3.68633 1.48362C3.64793 1.48293 3.613 1.47297 3.57395 1.47227C3.2399 1.47121 2.90991 1.54545 2.60819 1.68953C2.52182 1.72061 2.43759 1.75739 2.35604 1.79963C2.1197 1.93123 1.92066 2.12135 1.77771 2.352C1.63476 2.58266 1.55265 2.84624 1.53912 3.11783C1.53963 3.32829 1.58358 3.53639 1.66818 3.72891C1.75279 3.92144 1.87622 4.0942 2.03062 4.23624C3.45245 4.71712 4.83297 5.31402 6.15844 6.021C7.70925 7.21845 9.08899 8.62502 10.2588 10.2011L20.3977 31.6513C18.3547 32.8468 17.114 33.581 16.3607 34.0746C15.7237 33.8151 15.045 33.6751 14.3581 33.6615C10.9201 33.5998 8.0701 36.6549 8.00527 40.4717C7.94045 44.2885 10.6849 47.4473 14.1229 47.5089C15.4499 47.4901 16.7369 47.0503 17.8005 46.2521C18.864 45.4539 19.65 44.338 20.0463 43.0635L34.14 42.5359C34.2642 46.1748 36.9276 49.1169 40.2452 49.1764C43.6825 49.2381 46.5312 46.183 46.5961 42.3648C46.6609 38.5467 43.9177 35.3913 40.4804 35.3296C37.1767 35.2704 34.4261 38.0867 34.1569 41.6979L20.9193 40.6307C20.8309 39.2076 20.4243 36.9858 18.8657 35.5024C19.9038 34.8832 21.2455 34.0936 22.3663 33.4386L38.13 33.7214C40.2397 33.997 42.3769 33.4977 44.1494 32.3152C46.3601 30.8028 47.8068 28.2723 48.4565 24.7952L48.5359 24.3688C48.8948 22.7299 50.4678 16.2304 51.4847 12.0648C51.6775 11.5152 52.5348 8.75822 50.9278 6.84741ZM40.4365 37.8726C42.4812 37.9093 44.1099 39.9064 44.0688 42.3222C44.0278 44.7379 42.3317 46.6754 40.2876 46.6388C38.3171 46.6034 36.7444 44.7405 36.6709 42.442L41.2285 42.2719L36.6827 41.9038C36.8485 39.6256 38.4746 37.8374 40.4365 37.8726ZM14.1622 44.9665C12.1168 44.9299 10.4888 42.936 10.5298 40.517C10.5709 38.0979 12.269 36.1671 14.311 36.2037C14.5993 36.2122 14.8851 36.2599 15.1607 36.3456L15.1592 36.4355L15.8994 36.6754C16.5556 37.1001 17.0896 37.6906 17.4481 38.388C17.8066 39.0854 17.9769 39.8651 17.942 40.6493C17.9022 43.0697 16.2075 45.0032 14.1635 44.9666L14.1622 44.9665ZM7.05273 3.53928C12.9771 2.93314 17.1647 4.31512 19.3204 7.60462L11.9299 8.21778C10.5399 6.42674 8.89641 4.85045 7.05207 3.53927L7.05273 3.53928ZM49.0994 11.2297L49.0476 11.392C49.0476 11.392 48.2648 14.6015 47.4898 17.8151C46.5951 21.531 46.0834 23.3558 45.9755 24.3289C44.5284 32.0661 39.0905 31.3208 38.4773 31.2059L22.841 30.908L13.2683 10.6582L43.7762 8.13128L43.9342 8.10812C47.4277 7.36108 48.605 8.0233 48.9964 8.48349C49.6423 9.24481 49.2761 10.763 49.0974 11.2296L49.0994 11.2297Z" fill="#0F172A"/>
<path d="M38.8681 10.4168C38.8823 10.4031 38.2112 10.4583 37.1103 10.555L39.8525 17.2619L43.8651 17.0012C44.1661 14.8617 44.445 12.9743 44.445 12.9743C44.445 12.9743 45.1495 9.87452 38.8681 10.4168Z" fill="#88B92D"/>
<path d="M39.8552 17.2634L37.1133 10.5574C35.4589 10.7034 32.8188 10.9496 29.9691 11.2186L32.6302 17.7273L39.8552 17.2634Z" fill="#3FACDE"/>
<path d="M42.1865 22.9911L43.0488 22.9194C43.1066 22.3206 43.504 19.4973 43.8573 17.0064L39.843 17.2672L42.1865 22.9911Z" fill="#FB923C"/>
<path d="M35.0202 23.5882L42.189 22.9894L39.849 17.2664L32.6242 17.7316L35.0202 23.5882Z" fill="#005DAA"/>
<path d="M25.6191 18.1935L28.0672 24.1797L35.0226 23.5977L32.6266 17.741L25.6191 18.1935Z" fill="#3FACDE"/>
<path d="M32.6328 17.7345L29.971 11.2238C27.6499 11.4425 25.2014 11.6748 23.0473 11.8811L25.6252 18.187L32.6328 17.7345Z" fill="#A2DAE2"/>
<path d="M28.0642 24.1796L29.8935 28.6544L36.9661 28.3617L35.0186 23.597L28.0642 24.1796Z" fill="#5F2C7F"/>
<path d="M43.0506 22.922L42.1887 22.9938L35.0204 23.5926L36.9681 28.3579L38.6457 28.2883C39.6313 28.1349 40.5504 27.6944 41.2895 27.021C42.0285 26.3476 42.5551 25.4709 42.8042 24.4992C42.9344 24.0234 43.0172 23.5357 43.0512 23.0433C43.0433 23.0458 43.0453 23.0012 43.0506 22.922Z" fill="#B2241C"/>
<path d="M21.7602 24.7069L23.4853 28.9214L29.8954 28.6554L28.0662 24.1805L21.7602 24.7069Z" fill="#0F172A"/>
<path d="M25.6214 18.1932L19.2627 18.6015L21.7624 24.7062L28.0695 24.1797L25.6214 18.1932Z" fill="#66B3CD"/>
<path d="M23.0474 11.8876C19.5026 12.2234 16.7648 12.4904 16.7648 12.4904L19.2672 18.5986L25.6259 18.1904L23.0474 11.8876Z" fill="#EDFCFF"/>
<path d="M41.3358 33.8419C41.3358 33.8419 47.6738 36.667 46.8114 42.4082C46.8114 42.4082 48.9856 36.6326 42.965 33.6019L41.3358 33.8419Z" fill="#94A3B8"/>
</svg>
