<svg width="24" height="24" viewBox="0 0 24 24" fill="none" xmlns="http://www.w3.org/2000/svg">
<g clip-path="url(#clip0_1486_6807)">
<path fill-rule="evenodd" clip-rule="evenodd" d="M14.205 2.76188C13.5549 2.74999 12.8405 2.74999 12.0564 2.75H12H11H10.9436C9.10582 2.74998 7.65019 2.74997 6.51098 2.90313C5.33856 3.06076 4.38961 3.39288 3.64124 4.14124C2.89288 4.88961 2.56076 5.83856 2.40313 7.01098C2.24997 8.15019 2.24998 9.60582 2.25 11.4436V11.5V12.5V12.5564C2.24998 14.3942 2.24997 15.8498 2.40313 16.989C2.56076 18.1614 2.89288 19.1104 3.64124 19.8588C4.38961 20.6071 5.33856 20.9392 6.51098 21.0969C7.65018 21.25 9.1058 21.25 10.9435 21.25H10.9436H11H12H12.0564H12.0565C13.8942 21.25 15.3498 21.25 16.489 21.0969C17.6614 20.9392 18.6104 20.6071 19.3588 19.8588C20.1071 19.1104 20.4392 18.1614 20.5969 16.989C20.75 15.8498 20.75 14.3942 20.75 12.5565V12.5564V12.5V11.5V11.4436V11.4435C20.75 11.1064 20.75 10.7822 20.7491 10.4704L19.25 11.9695V12.5C19.25 14.4068 19.2484 15.7615 19.1102 16.7892C18.975 17.7952 18.7213 18.3749 18.2981 18.7981C17.8749 19.2213 17.2952 19.475 16.2892 19.6102C15.2615 19.7484 13.9068 19.75 12 19.75H11C9.09318 19.75 7.73851 19.7484 6.71085 19.6102C5.70476 19.475 5.12511 19.2213 4.7019 18.7981C4.27869 18.3749 4.02502 17.7952 3.88976 16.7892C3.75159 15.7615 3.75 14.4068 3.75 12.5V11.5C3.75 9.59318 3.75159 8.23851 3.88976 7.21085C4.02502 6.20476 4.27869 5.62511 4.7019 5.2019C5.12511 4.77869 5.70476 4.52502 6.71085 4.38976C7.73851 4.25159 9.09318 4.25 11 4.25H12C12.248 4.25 12.4867 4.25003 12.7165 4.25038L14.205 2.76188Z" fill="#94A3B8"/>
<path d="M10.8994 14.6666L10.8736 13.917L10.8994 14.6666ZM9.67233 14.5658L9.3082 15.2215L9.67233 14.5658ZM9.18281 12.95L9.93237 12.9758L9.18281 12.95ZM9.2836 14.1771L8.62793 14.5412L9.2836 14.1771ZM11.1241 8.48266L11.6544 9.01299L11.1241 8.48266ZM9.78026 9.99949L9.136 9.61552L9.78026 9.99949ZM9.37477 10.9326L8.65449 10.7236L9.37477 10.9326ZM15.3667 12.7253L14.8364 12.195L15.3667 12.7253ZM13.8499 14.0691L14.2339 14.7134L13.8499 14.0691ZM12.9168 14.4746L13.1258 15.1949L12.9168 14.4746ZM19.7281 8.36393L20.2584 8.89426L19.7281 8.36393ZM15.4855 4.12129L14.9551 3.59096L15.4855 4.12129ZM19.1978 7.8336L14.8364 12.195L15.8971 13.2556L20.2584 8.89426L19.1978 7.8336ZM11.6544 9.01299L16.0158 4.65163L14.9551 3.59096L10.5938 7.95233L11.6544 9.01299ZM10.8736 13.917C10.5313 13.9288 10.3257 13.9352 10.1738 13.9264C10.0316 13.9183 10.0171 13.8994 10.0365 13.9101L9.3082 15.2215C9.57014 15.3669 9.84109 15.4098 10.0877 15.424C10.3246 15.4376 10.6112 15.427 10.9253 15.4161L10.8736 13.917ZM8.43326 12.9241C8.42243 13.2382 8.4118 13.5248 8.42543 13.7617C8.43962 14.0083 8.48246 14.2793 8.62793 14.5412L9.93928 13.8129C9.95001 13.8323 9.93114 13.8178 9.92296 13.6756C9.91422 13.5237 9.92057 13.3181 9.93237 12.9758L8.43326 12.9241ZM10.0365 13.9101C9.99562 13.8874 9.96196 13.8538 9.93928 13.8129L8.62793 14.5412C8.78668 14.8271 9.02234 15.0627 9.3082 15.2215L10.0365 13.9101ZM10.5938 7.95233C9.89446 8.65164 9.45013 9.08844 9.136 9.61552L10.4245 10.3835C10.6208 10.0542 10.9022 9.76523 11.6544 9.01299L10.5938 7.95233ZM9.93237 12.9758C9.96903 11.9126 9.98825 11.5097 10.0951 11.1416L8.65449 10.7236C8.4835 11.3129 8.46734 11.9358 8.43326 12.9241L9.93237 12.9758ZM9.136 9.61552C8.92899 9.96288 8.76717 10.3353 8.65449 10.7236L10.0951 11.1416C10.1722 10.8759 10.2829 10.6211 10.4245 10.3835L9.136 9.61552ZM14.8364 12.195C14.0842 12.9472 13.7952 13.2286 13.4659 13.4249L14.2339 14.7134C14.761 14.3993 15.1978 13.9549 15.8971 13.2556L14.8364 12.195ZM10.9253 15.4161C11.9136 15.3821 12.5365 15.3659 13.1258 15.1949L12.7078 13.7543C12.3397 13.8612 11.9368 13.8804 10.8736 13.917L10.9253 15.4161ZM13.4659 13.4249C13.2283 13.5665 12.9735 13.6772 12.7078 13.7543L13.1258 15.1949C13.5141 15.0822 13.8865 14.9204 14.2339 14.7134L13.4659 13.4249ZM19.1978 4.65162C20.0765 5.5303 20.0765 6.95492 19.1978 7.8336L20.2584 8.89426C21.7229 7.4298 21.7229 5.05543 20.2584 3.59096L19.1978 4.65162ZM20.2584 3.59096C18.794 2.1265 16.4196 2.1265 14.9551 3.59096L16.0158 4.65163C16.8945 3.77295 18.3191 3.77294 19.1978 4.65162L20.2584 3.59096Z" fill="#94A3B8"/>
<path d="M15.1318 4.47485L19.3745 8.71749" stroke="#94A3B8" stroke-width="1.5"/>
</g>
<defs>
<clipPath id="clip0_1486_6807">
<rect width="24" height="24" fill="white"/>
</clipPath>
</defs>
</svg>
