<svg width="11" height="7" viewBox="0 0 11 7" fill="none" xmlns="http://www.w3.org/2000/svg">
<path d="M5.9997 6.99994C5.86809 7.0007 5.73763 6.97548 5.61579 6.92571C5.49395 6.87595 5.38314 6.80262 5.2897 6.70994L1.2897 2.70994C1.10139 2.52164 0.995605 2.26624 0.995605 1.99994C0.995605 1.73364 1.10139 1.47824 1.2897 1.28994C1.478 1.10164 1.7334 0.99585 1.9997 0.99585C2.266 0.99585 2.52139 1.10164 2.7097 1.28994L5.9997 4.58994L9.2897 1.29994C9.481 1.13611 9.72707 1.05051 9.97875 1.06023C10.2304 1.06995 10.4692 1.17428 10.6473 1.35238C10.8254 1.53047 10.9297 1.76921 10.9394 2.02089C10.9491 2.27256 10.8635 2.51864 10.6997 2.70994L6.6997 6.70994C6.51344 6.89468 6.26204 6.99884 5.9997 6.99994Z" fill="#0F172A"/>
</svg>
