<svg width="12" height="8" viewBox="0 0 12 8" fill="none" xmlns="http://www.w3.org/2000/svg">
<path d="M6.03839 7.24508C5.87959 7.246 5.72216 7.21556 5.57514 7.15551C5.42812 7.09546 5.2944 7.00698 5.18164 6.89514L0.354878 2.06838C0.127653 1.84115 0 1.53297 0 1.21163C0 0.890284 0.127653 0.582102 0.354878 0.354877C0.582102 0.127653 0.890285 0 1.21163 0C1.53297 0 1.84116 0.127653 2.06838 0.354877L6.03839 4.33696L10.0084 0.366944C10.2393 0.169257 10.5362 0.065956 10.8399 0.0776864C11.1436 0.0894168 11.4317 0.215314 11.6466 0.43022C11.8615 0.645125 11.9874 0.933209 11.9991 1.2369C12.0108 1.5406 11.9075 1.83754 11.7098 2.06838L6.88308 6.89514C6.65832 7.11807 6.35496 7.24375 6.03839 7.24508Z" fill="#586BCA"/>
</svg>
