<svg width="21" height="20" viewBox="0 0 21 20" fill="none" xmlns="http://www.w3.org/2000/svg">
<path d="M20.4996 10.061C20.4996 4.50354 16.0221 -0.00146484 10.4996 -0.00146484C4.97457 -0.000214844 0.49707 4.50354 0.49707 10.0623C0.49707 15.0835 4.15457 19.246 8.93457 20.001V12.9698H6.39707V10.0623H8.93707V7.84354C8.93707 5.32229 10.4308 3.92979 12.7146 3.92979C13.8096 3.92979 14.9533 4.12604 14.9533 4.12604V6.60104H13.6921C12.4508 6.60104 12.0633 7.37729 12.0633 8.17354V10.061H14.8358L14.3933 12.9685H12.0621V19.9998C16.8421 19.2448 20.4996 15.0823 20.4996 10.061Z" fill="url(#paint0_linear_1651_13432)"/>
<defs>
<linearGradient id="paint0_linear_1651_13432" x1="1.51761" y1="3.06014" x2="16.8256" y2="19.3887" gradientUnits="userSpaceOnUse">
<stop stop-color="#91AAFF"/>
<stop offset="1" stop-color="#3752D7"/>
</linearGradient>
</defs>
</svg>
