<svg width="4" height="8" viewBox="0 0 4 8" fill="none" xmlns="http://www.w3.org/2000/svg">
<path d="M6.11363e-05 4.02019C-0.000416412 3.93762 0.0154115 3.85576 0.0466365 3.77931C0.0778612 3.70286 0.123869 3.63333 0.182022 3.5747L2.69183 1.0649C2.80998 0.946748 2.97022 0.880371 3.13732 0.880371C3.30441 0.880371 3.46465 0.946748 3.58281 1.0649C3.70096 1.18305 3.76733 1.3433 3.76733 1.51039C3.76733 1.67748 3.70096 1.83773 3.58281 1.95588L1.51222 4.02019L3.57653 6.08451C3.67932 6.20454 3.73304 6.35894 3.72694 6.51685C3.72084 6.67477 3.65538 6.82457 3.54363 6.93631C3.43188 7.04806 3.28209 7.11352 3.12417 7.11962C2.96626 7.12572 2.81186 7.07201 2.69183 6.96921L0.182022 4.45941C0.066104 4.34254 0.000754212 4.1848 6.11363e-05 4.02019Z" fill="#CBD5E1"/>
</svg>
