<svg width="5" height="8" viewBox="0 0 5 8" fill="none" xmlns="http://www.w3.org/2000/svg">
<path d="M4.53461 3.97981C4.53508 4.06238 4.51926 4.14424 4.48803 4.22069C4.45681 4.29714 4.4108 4.36667 4.35265 4.4253L1.84284 6.9351C1.72469 7.05325 1.56444 7.11963 1.39735 7.11963C1.23026 7.11963 1.07001 7.05325 0.951862 6.9351C0.83371 6.81695 0.767334 6.6567 0.767334 6.48961C0.767334 6.32252 0.83371 6.16227 0.951862 6.04412L3.02245 3.97981L0.958136 1.91549C0.855343 1.79546 0.801629 1.64106 0.807729 1.48315C0.813828 1.32523 0.879292 1.17543 0.991038 1.06369C1.10278 0.951942 1.25258 0.88648 1.41049 0.880381C1.56841 0.874281 1.72281 0.927994 1.84284 1.03079L4.35265 3.54059C4.46856 3.65746 4.53391 3.8152 4.53461 3.97981Z" fill="#CBD5E1"/>
</svg>
