<svg width="111" height="112" viewBox="0 0 111 112" fill="none" xmlns="http://www.w3.org/2000/svg">
<g clip-path="url(#clip0_1708_9535)">
<path d="M5.24881 41.8964C33.1111 42.4008 60.9623 41.5637 88.8225 41.9762C91.3167 42.0073 88.3649 37.5874 86.6183 37.5644C58.7702 37.1455 30.9068 37.989 3.0567 37.4782C0.568241 37.4286 3.50797 41.8549 5.26092 41.89L5.24881 41.8964Z" fill="#FCA5A5"/>
<path d="M86.3732 35.6339C75.0238 57.2949 63.1286 78.6553 50.675 99.6911C49.7886 101.181 53.6819 104.949 54.7987 103.074C67.2524 82.0387 79.1597 60.6718 90.497 39.0173C91.3144 37.4555 87.3669 33.7313 86.3732 35.6339Z" fill="#FCA5A5"/>
<path d="M4.00395 37.6902C20.7483 58.6803 37.1434 79.9476 53.2014 101.486C53.7508 102.233 55.1066 103.717 56.1944 103.313C57.2822 102.91 56.5872 101.387 56.1323 100.76C40.0929 79.2274 23.6857 57.9665 6.9349 36.9643C6.34916 36.2358 5.06027 34.7325 3.94185 35.1368C2.82343 35.5412 3.52486 37.0758 4.00395 37.6902Z" fill="#FCA5A5"/>
</g>
<defs>
<clipPath id="clip0_1708_9535">
<rect width="84.6827" height="78.6153" fill="white" transform="translate(70.5273) rotate(62.1794)"/>
</clipPath>
</defs>
</svg>
