<svg width="30" height="20" viewBox="0 0 30 20" fill="none" xmlns="http://www.w3.org/2000/svg">
<path d="M28.8081 3.1242C28.6455 2.51923 28.3266 1.96753 27.8834 1.52432C27.4402 1.08111 26.8882 0.761928 26.2826 0.598726C24.0537 1.21487e-07 15.1187 0 15.1187 0C15.1187 0 6.18377 -1.21487e-07 3.95482 0.595541C3.34902 0.758213 2.79673 1.07721 2.35343 1.52051C1.91013 1.9638 1.59142 2.51578 1.42931 3.12102C0.833008 5.35032 0.833008 10 0.833008 10C0.833008 10 0.833008 14.6497 1.42931 16.8758C1.75775 18.1051 2.72714 19.0732 3.95482 19.4013C6.18377 20 15.1187 20 15.1187 20C15.1187 20 24.0537 20 26.2826 19.4013C27.5135 19.0732 28.4797 18.1051 28.8081 16.8758C29.4044 14.6497 29.4044 10 29.4044 10C29.4044 10 29.4044 5.35032 28.8081 3.1242ZM12.2807 14.2675V5.73248L19.6787 9.96815L12.2807 14.2675Z" fill="url(#paint0_linear_1651_13430)"/>
<defs>
<linearGradient id="paint0_linear_1651_13430" x1="2.29073" y1="3.06122" x2="16.3619" y2="24.503" gradientUnits="userSpaceOnUse">
<stop stop-color="#91AAFF"/>
<stop offset="1" stop-color="#3752D7"/>
</linearGradient>
</defs>
</svg>
