<svg width="24" height="26" viewBox="0 0 24 26" fill="none" xmlns="http://www.w3.org/2000/svg">
<path d="M15.759 1C12.7032 1 10.666 3.25166 10.666 6.23286C10.666 9.21406 14.0613 13.5426 15.759 13.5426C17.4567 13.5426 20.8521 9.21406 20.8521 6.23286C20.8521 3.25166 18.8148 1 15.759 1Z" stroke="#0F172A" stroke-width="1.5"/>
<circle cx="15.7265" cy="5.70943" r="1.30855" stroke="#0F172A"/>
<path d="M11.169 9H9.44278C7.30554 9 6.23691 9 5.34792 9.32593C4.16259 9.76051 3.16985 10.6015 2.54632 11.6992C2.07867 12.5226 1.90299 13.5766 1.55163 15.6848C1.07776 18.5281 0.840819 19.9497 1.15313 21.0833C1.56954 22.5947 2.62986 23.8464 4.05227 24.5056C5.11908 25 6.56031 25 9.44278 25H14.5554C17.4379 25 18.8791 25 19.9459 24.5056C21.3683 23.8464 22.4287 22.5947 22.8451 21.0833C23.1574 19.9497 22.9204 18.5281 22.4466 15.6848C22.0952 13.5766 21.9195 12.5226 21.4519 11.6992C21.0304 10.9572 20.4403 10.3325 19.736 9.87137" stroke="#0F172A" stroke-width="1.5" stroke-linecap="round" stroke-linejoin="round"/>
<circle cx="6.66667" cy="13.5426" r="1.66667" fill="#0F172A"/>
<path d="M5 21.2391L9.66667 16.5724L14.3333 20.5724L19 15.9058" stroke="#0F172A" stroke-width="1.5" stroke-linecap="round" stroke-linejoin="round"/>
</svg>
