<svg width="20" height="16" viewBox="0 0 20 16" fill="none" xmlns="http://www.w3.org/2000/svg">
<path fill-rule="evenodd" clip-rule="evenodd" d="M1.31183 2.5513C0.608398 3.60406 0.608398 5.06959 0.608398 8.00064C0.608398 10.9317 0.608398 12.3972 1.31183 13.45C1.61636 13.9057 2.00766 14.297 2.46341 14.6016C3.51617 15.305 4.9817 15.305 7.91275 15.305H12.0867C15.0177 15.305 16.4832 15.305 17.536 14.6016C17.9917 14.297 18.383 13.9057 18.6876 13.45C19.391 12.3972 19.391 10.9317 19.391 8.00064C19.391 5.06959 19.391 3.60406 18.6876 2.5513C18.383 2.09555 17.9917 1.70425 17.536 1.39972C16.4832 0.696289 15.0177 0.696289 12.0867 0.696289H7.91275C4.9817 0.696289 3.51617 0.696289 2.46341 1.39972C2.00766 1.70425 1.61636 2.09555 1.31183 2.5513ZM4.08883 4.17022C3.70224 3.97692 3.23214 4.13362 3.03885 4.52021C2.84555 4.9068 3.00225 5.37689 3.38884 5.57019L9.64972 8.7006C9.87 8.81079 10.1294 8.81079 10.3497 8.7006L16.6106 5.57019C16.9972 5.37689 17.1539 4.9068 16.9605 4.52021C16.7673 4.13362 16.2972 3.97692 15.9106 4.17022L9.9997 7.12568L4.08883 4.17022Z" fill="white"/>
</svg>
